<svg version="1.1" viewBox="0.0 0.0 889.7821522309712 506.98687664041995" fill="none" stroke="none" stroke-linecap="square" stroke-miterlimit="10" xmlns:xlink="http://www.w3.org/1999/xlink" xmlns="http://www.w3.org/2000/svg"><clipPath id="p.0"><path d="m0 0l889.78217 0l0 506.98688l-889.78217 0l0 -506.98688z" clip-rule="nonzero"/></clipPath><g clip-path="url(#p.0)"><path fill="#000000" fill-opacity="0.0" d="m0 0l889.78217 0l0 506.98688l-889.78217 0z" fill-rule="evenodd"/><path fill="#ffffff" d="m31.871391 48.133858l194.61417 0l0 111.65354l-194.61417 0z" fill-rule="evenodd"/><path stroke="#000000" stroke-width="1.0" stroke-linejoin="round" stroke-linecap="butt" d="m31.871391 48.133858l194.61417 0l0 111.65354l-194.61417 0z" fill-rule="evenodd"/><path fill="#000000" d="m45.66375 99.88063l0 -13.359375l9.015625 0l0 1.578125l-7.25 0l0 4.140625l6.265625 0l0 1.578125l-6.265625 0l0 6.0625l-1.765625 0zm11.083481 0l0 -9.671875l1.46875 0l0 1.46875q0.5625 -1.03125 1.03125 -1.359375q0.484375 -0.328125 1.0625 -0.328125q0.828125 0 1.6875 0.53125l-0.5625 1.515625q-0.609375 -0.359375 -1.203125 -0.359375q-0.546875 0 -0.96875 0.328125q-0.421875 0.328125 -0.609375 0.890625q-0.28125 0.875 -0.28125 1.921875l0 5.0625l-1.625 0zm5.618927 -4.84375q0 -2.6875 1.484375 -3.96875q1.25 -1.078125 3.046875 -1.078125q2.0 0 3.265625 1.3125q1.265625 1.296875 1.265625 3.609375q0 1.859375 -0.5625 2.9375q-0.5625 1.0625 -1.640625 1.65625q-1.0625 0.59375 -2.328125 0.59375q-2.03125 0 -3.28125 -1.296875q-1.25 -1.3125 -1.25 -3.765625zm1.6875 0q0 1.859375 0.796875 2.796875q0.8125 0.921875 2.046875 0.921875q1.21875 0 2.03125 -0.921875q0.8125 -0.9375 0.8125 -2.84375q0 -1.796875 -0.8125 -2.71875q-0.8125 -0.921875 -2.03125 -0.921875q-1.234375 0 -2.046875 0.921875q-0.796875 0.90625 -0.796875 2.765625zm9.297592 4.84375l0 -9.671875l1.46875 0l0 1.375q1.0625 -1.59375 3.078125 -1.59375q0.875 0 1.609375 0.3125q0.734375 0.3125 1.09375 0.828125q0.375 0.5 0.515625 1.203125q0.09375 0.453125 0.09375 1.59375l0 5.953125l-1.640625 0l0 -5.890625q0 -1.0 -0.203125 -1.484375q-0.1875 -0.5 -0.671875 -0.796875q-0.484375 -0.296875 -1.140625 -0.296875q-1.046875 0 -1.8125 0.671875q-0.75 0.65625 -0.75 2.515625l0 5.28125l-1.640625 0zm13.953842 -1.46875l0.234375 1.453125q-0.6875 0.140625 -1.234375 0.140625q-0.890625 0 -1.390625 -0.28125q-0.484375 -0.28125 -0.6875 -0.734375q-0.203125 -0.46875 -0.203125 -1.9375l0 -5.578125l-1.203125 0l0 -1.265625l1.203125 0l0 -2.390625l1.625 -0.984375l0 3.375l1.65625 0l0 1.265625l-1.65625 0l0 5.671875q0 0.6875 0.078125 0.890625q0.09375 0.203125 0.28125 0.328125q0.203125 0.109375 0.578125 0.109375q0.265625 0 0.71875 -0.0625zm8.230179 -1.640625l1.6875 0.203125q-0.40625 1.484375 -1.484375 2.3125q-1.078125 0.8125 -2.765625 0.8125q-2.125 0 -3.375 -1.296875q-1.234375 -1.3125 -1.234375 -3.671875q0 -2.453125 1.25 -3.796875q1.265625 -1.34375 3.265625 -1.34375q1.9375 0 3.15625 1.328125q1.234375 1.3125 1.234375 3.703125q0 0.15625 0 0.4375l-7.21875 0q0.09375 1.59375 0.90625 2.453125q0.8125 0.84375 2.015625 0.84375q0.90625 0 1.546875 -0.46875q0.640625 -0.484375 1.015625 -1.515625zm-5.390625 -2.65625l5.40625 0q-0.109375 -1.21875 -0.625 -1.828125q-0.78125 -0.953125 -2.03125 -0.953125q-1.125 0 -1.90625 0.765625q-0.765625 0.75 -0.84375 2.015625zm9.141342 5.765625l0 -9.671875l1.46875 0l0 1.375q1.0625 -1.59375 3.078125 -1.59375q0.875 0 1.609375 0.3125q0.734375 0.3125 1.09375 0.828125q0.375 0.5 0.515625 1.203125q0.09375 0.453125 0.09375 1.59375l0 5.953125l-1.640625 0l0 -5.890625q0 -1.0 -0.203125 -1.484375q-0.1875 -0.5 -0.671875 -0.796875q-0.484375 -0.296875 -1.140625 -0.296875q-1.046875 0 -1.8125 0.671875q-0.75 0.65625 -0.75 2.515625l0 5.28125l-1.640625 0zm16.641342 0l0 -1.21875q-0.90625 1.4375 -2.703125 1.4375q-1.15625 0 -2.125 -0.640625q-0.96875 -0.640625 -1.5 -1.78125q-0.53125 -1.140625 -0.53125 -2.625q0 -1.453125 0.484375 -2.625q0.484375 -1.1875 1.4375 -1.8125q0.96875 -0.625 2.171875 -0.625q0.875 0 1.546875 0.375q0.6875 0.359375 1.109375 0.953125l0 -4.796875l1.640625 0l0 13.359375l-1.53125 0zm-5.171875 -4.828125q0 1.859375 0.78125 2.78125q0.78125 0.921875 1.84375 0.921875q1.078125 0 1.828125 -0.875q0.75 -0.890625 0.75 -2.6875q0 -1.984375 -0.765625 -2.90625q-0.765625 -0.9375 -1.890625 -0.9375q-1.078125 0 -1.8125 0.890625q-0.734375 0.890625 -0.734375 2.8125zm12.169693 4.828125l5.1249924 -13.359375l1.90625 0l5.46875 13.359375l-2.015625 0l-1.546875 -4.046875l-5.5937424 0l-1.46875 4.046875l-1.875 0zm3.859375 -5.484375l4.5312424 0l-1.40625 -3.703125q-0.625 -1.6875 -0.9375 -2.765625q-0.265625 1.28125 -0.71875 2.546875l-1.4687424 3.921875zm9.849815 9.1875l0 -13.375l1.484375 0l0 1.25q0.53125 -0.734375 1.1875 -1.09375q0.671875 -0.375 1.625 -0.375q1.234375 0 2.171875 0.640625q0.953125 0.625 1.4375 1.796875q0.484375 1.15625 0.484375 2.546875q0 1.484375 -0.53125 2.671875q-0.53125 1.1875 -1.546875 1.828125q-1.015625 0.625 -2.140625 0.625q-0.8125 0 -1.46875 -0.34375q-0.65625 -0.34375 -1.0625 -0.875l0 4.703125l-1.640625 0zm1.484375 -8.484375q0 1.859375 0.75 2.765625q0.765625 0.890625 1.828125 0.890625q1.09375 0 1.875 -0.921875q0.78125 -0.9375 0.78125 -2.875q0 -1.84375 -0.765625 -2.765625q-0.75 -0.921875 -1.8125 -0.921875q-1.046875 0 -1.859375 0.984375q-0.796875 0.96875 -0.796875 2.84375zm8.891342 8.484375l0 -13.375l1.484375 0l0 1.25q0.53125 -0.734375 1.1875 -1.09375q0.671875 -0.375 1.625 -0.375q1.234375 0 2.171875 0.640625q0.953125 0.625 1.4375 1.796875q0.484375 1.15625 0.484375 2.546875q0 1.484375 -0.53125 2.671875q-0.53125 1.1875 -1.546875 1.828125q-1.015625 0.625 -2.140625 0.625q-0.8125 0 -1.46875 -0.34375q-0.65625 -0.34375 -1.0625 -0.875l0 4.703125l-1.640625 0zm1.484375 -8.484375q0 1.859375 0.75 2.765625q0.765625 0.890625 1.828125 0.890625q1.09375 0 1.875 -0.921875q0.78125 -0.9375 0.78125 -2.875q0 -1.84375 -0.765625 -2.765625q-0.75 -0.921875 -1.8125 -0.921875q-1.046875 0 -1.859375 0.984375q-0.796875 0.96875 -0.796875 2.84375zm8.844467 4.78125l0 -13.359375l1.640625 0l0 13.359375l-1.640625 0zm4.191696 -11.46875l0 -1.890625l1.640625 0l0 1.890625l-1.640625 0zm0 11.46875l0 -9.671875l1.640625 0l0 9.671875l-1.640625 0zm10.457321 -3.546875l1.609375 0.21875q-0.265625 1.65625 -1.359375 2.609375q-1.078125 0.9375 -2.671875 0.9375q-1.984375 0 -3.1875 -1.296875q-1.203125 -1.296875 -1.203125 -3.71875q0 -1.578125 0.515625 -2.75q0.515625 -1.171875 1.578125 -1.75q1.0625 -0.59375 2.3125 -0.59375q1.578125 0 2.578125 0.796875q1.0 0.796875 1.28125 2.265625l-1.59375 0.234375q-0.234375 -0.96875 -0.8125 -1.453125q-0.578125 -0.5 -1.390625 -0.5q-1.234375 0 -2.015625 0.890625q-0.78125 0.890625 -0.78125 2.8125q0 1.953125 0.75 2.84375q0.75 0.875 1.953125 0.875q0.96875 0 1.609375 -0.59375q0.65625 -0.59375 0.828125 -1.828125zm9.328125 2.359375q-0.921875 0.765625 -1.765625 1.09375q-0.828125 0.3125 -1.796875 0.3125q-1.59375 0 -2.453125 -0.78125q-0.859375 -0.78125 -0.859375 -1.984375q0 -0.71875 0.328125 -1.296875q0.328125 -0.59375 0.84375 -0.9375q0.53125 -0.359375 1.1875 -0.546875q0.46875 -0.125 1.453125 -0.25q1.984375 -0.234375 2.921875 -0.5625q0.015625 -0.34375 0.015625 -0.421875q0 -1.0 -0.46875 -1.421875q-0.625 -0.546875 -1.875 -0.546875q-1.15625 0 -1.703125 0.40625q-0.546875 0.40625 -0.8125 1.421875l-1.609375 -0.21875q0.21875 -1.015625 0.71875 -1.640625q0.5 -0.640625 1.453125 -0.984375q0.953125 -0.34375 2.1875 -0.34375q1.25 0 2.015625 0.296875q0.78125 0.28125 1.140625 0.734375q0.375 0.4375 0.515625 1.109375q0.078125 0.421875 0.078125 1.515625l0 2.1875q0 2.28125 0.109375 2.890625q0.109375 0.59375 0.40625 1.15625l-1.703125 0q-0.265625 -0.515625 -0.328125 -1.1875zm-0.140625 -3.671875q-0.890625 0.375 -2.671875 0.625q-1.015625 0.140625 -1.4375 0.328125q-0.421875 0.1875 -0.65625 0.53125q-0.21875 0.34375 -0.21875 0.78125q0 0.65625 0.5 1.09375q0.5 0.4375 1.453125 0.4375q0.9375 0 1.671875 -0.40625q0.75 -0.421875 1.09375 -1.140625q0.265625 -0.5625 0.265625 -1.640625l0 -0.609375zm7.781967 3.390625l0.234375 1.453125q-0.6875 0.140625 -1.234375 0.140625q-0.890625 0 -1.390625 -0.28125q-0.484375 -0.28125 -0.6875 -0.734375q-0.203125 -0.46875 -0.203125 -1.9375l0 -5.578125l-1.203125 0l0 -1.265625l1.203125 0l0 -2.390625l1.625 -0.984375l0 3.375l1.65625 0l0 1.265625l-1.65625 0l0 5.671875q0 0.6875 0.078125 0.890625q0.09375 0.203125 0.28125 0.328125q0.203125 0.109375 0.578125 0.109375q0.265625 0 0.71875 -0.0625zm1.6051788 -10.0l0 -1.890625l1.640625 0l0 1.890625l-1.640625 0zm0 11.46875l0 -9.671875l1.640625 0l0 9.671875l-1.640625 0zm3.5354462 -4.84375q0 -2.6875 1.484375 -3.96875q1.25 -1.078125 3.046875 -1.078125q2.0 0 3.265625 1.3125q1.265625 1.296875 1.265625 3.609375q0 1.859375 -0.5625 2.9375q-0.5625 1.0625 -1.640625 1.65625q-1.0625 0.59375 -2.328125 0.59375q-2.03125 0 -3.28125 -1.296875q-1.25 -1.3125 -1.25 -3.765625zm1.6875 0q0 1.859375 0.796875 2.796875q0.8125 0.921875 2.046875 0.921875q1.21875 0 2.03125 -0.921875q0.8125 -0.9375 0.8125 -2.84375q0 -1.796875 -0.8125 -2.71875q-0.8125 -0.921875 -2.03125 -0.921875q-1.234375 0 -2.046875 0.921875q-0.796875 0.90625 -0.796875 2.765625zm9.297592 4.84375l0 -9.671875l1.46875 0l0 1.375q1.0625 -1.59375 3.078125 -1.59375q0.875 0 1.609375 0.3125q0.734375 0.3125 1.09375 0.828125q0.375 0.5 0.515625 1.203125q0.09375 0.453125 0.09375 1.59375l0 5.953125l-1.640625 0l0 -5.890625q0 -1.0 -0.203125 -1.484375q-0.1875 -0.5 -0.671875 -0.796875q-0.484375 -0.296875 -1.140625 -0.296875q-1.046875 0 -1.8125 0.671875q-0.75 0.65625 -0.75 2.515625l0 5.28125l-1.640625 0z" fill-rule="nonzero"/><path fill="#000000" d="m101.40865 125.8025q-1.359375 -1.703125 -2.296875 -4.0q-0.9375 -2.296875 -0.9375 -4.765625q0 -2.15625 0.703125 -4.140625q0.828125 -2.3125 2.53125 -4.59375l1.171875 0q-1.09375 1.890625 -1.453125 2.703125q-0.546875 1.25 -0.875 2.625q-0.390625 1.703125 -0.390625 3.421875q0 4.375 2.71875 8.75l-1.171875 0zm3.275177 -3.921875l0 -13.359375l1.8125 0l7.015625 10.484375l0 -10.484375l1.6875 0l0 13.359375l-1.8125 0l-7.015625 -10.5l0 10.5l-1.6875 0zm19.910446 -3.109375l1.6875 0.203125q-0.40625 1.484375 -1.484375 2.3125q-1.078125 0.8125 -2.765625 0.8125q-2.125 0 -3.375 -1.296875q-1.234375 -1.3125 -1.234375 -3.671875q0 -2.453125 1.25 -3.796875q1.265625 -1.34375 3.265625 -1.34375q1.9375 0 3.15625 1.328125q1.234375 1.3125 1.234375 3.703125q0 0.15625 0 0.4375l-7.21875 0q0.09375 1.59375 0.90625 2.453125q0.8125 0.84375 2.015625 0.84375q0.90625 0 1.546875 -0.46875q0.640625 -0.484375 1.015625 -1.515625zm-5.390625 -2.65625l5.40625 0q-0.109375 -1.21875 -0.625 -1.828125q-0.78125 -0.953125 -2.03125 -0.953125q-1.125 0 -1.90625 0.765625q-0.765625 0.75 -0.84375 2.015625zm12.71946 4.296875l0.234375 1.453125q-0.6875 0.140625 -1.234375 0.140625q-0.890625 0 -1.390625 -0.28125q-0.484375 -0.28125 -0.6875 -0.734375q-0.203125 -0.46875 -0.203125 -1.9375l0 -5.578125l-1.2031174 0l0 -1.265625l1.2031174 0l0 -2.390625l1.625 -0.984375l0 3.375l1.65625 0l0 1.265625l-1.65625 0l0 5.671875q0 0.6875 0.078125 0.890625q0.09375 0.203125 0.28125 0.328125q0.203125 0.109375 0.578125 0.109375q0.265625 0 0.71875 -0.0625zm1.5583038 1.46875l0 -13.359375l1.640625 0l0 13.359375l-1.640625 0zm4.191696 -11.46875l0 -1.890625l1.640625 0l0 1.890625l-1.640625 0zm0 11.46875l0 -9.671875l1.640625 0l0 9.671875l-1.640625 0zm4.535446 0l0 -8.40625l-1.453125 0l0 -1.265625l1.453125 0l0 -1.03125q0 -0.96875 0.171875 -1.453125q0.234375 -0.640625 0.828125 -1.03125q0.59375 -0.390625 1.671875 -0.390625q0.6875 0 1.53125 0.15625l-0.25 1.4375q-0.5 -0.09375 -0.953125 -0.09375q-0.75 0 -1.0625 0.328125q-0.3125 0.3125 -0.3125 1.1875l0 0.890625l1.890625 0l0 1.265625l-1.890625 0l0 8.40625l-1.625 0zm4.714554 3.71875l-0.1875 -1.53125q0.546875 0.140625 0.9375 0.140625q0.546875 0 0.875 -0.1875q0.328125 -0.171875 0.546875 -0.5q0.15625 -0.25 0.5 -1.21875q0.046875 -0.140625 0.140625 -0.40625l-3.671875 -9.6875l1.765625 0l2.015625 5.59375q0.390625 1.078125 0.703125 2.25q0.28125 -1.125 0.671875 -2.203125l2.078125 -5.640625l1.640625 0l-3.6875 9.828125q-0.59375 1.609375 -0.921875 2.203125q-0.4375 0.8125 -1.0 1.1875q-0.5625 0.375 -1.34375 0.375q-0.484375 0 -1.0625 -0.203125zm10.484375 0.203125l-1.1875 0q2.734375 -4.375 2.734375 -8.75q0 -1.71875 -0.390625 -3.390625q-0.3125 -1.375 -0.875 -2.625q-0.359375 -0.828125 -1.46875 -2.734375l1.1875 0q1.703125 2.28125 2.53125 4.59375q0.6875 1.984375 0.6875 4.140625q0 2.46875 -0.9375 4.765625q-0.9375 2.296875 -2.28125 4.0z" fill-rule="nonzero"/><path fill="#000000" fill-opacity="0.0" d="m607.2782 252.79527l103.77954 113.98427" fill-rule="evenodd"/><path stroke="#000000" stroke-width="1.0" stroke-linejoin="round" stroke-linecap="butt" d="m607.2782 252.79527l99.74017 109.54765" fill-rule="evenodd"/><path fill="#000000" stroke="#000000" stroke-width="1.0" stroke-linecap="butt" d="m705.797 363.45493l4.2765503 2.2436218l-1.8338623 -4.467621z" fill-rule="evenodd"/><path fill="#000000" fill-opacity="0.0" d="m607.2782 252.79527l173.82678 180.37794" fill-rule="evenodd"/><path stroke="#000000" stroke-width="1.0" stroke-linejoin="round" stroke-linecap="butt" d="m607.2782 252.79527l169.66333 176.05757" fill-rule="evenodd"/><path fill="#000000" stroke="#000000" stroke-width="1.0" stroke-linecap="butt" d="m775.7522 429.99902l4.338379 2.1215515l-1.9597168 -4.4138794z" fill-rule="evenodd"/><path fill="#ffffff" d="m343.6404 48.133858l515.9685 0l0 409.32285l-515.9685 0z" fill-rule="evenodd"/><path stroke="#000000" stroke-width="1.0" stroke-linejoin="round" stroke-linecap="butt" d="m343.6404 48.133858l515.9685 0l0 409.32285l-515.9685 0z" fill-rule="evenodd"/><path fill="#000000" d="m353.9998 248.71529l0 -13.359375l5.015625 0q1.53125 0 2.453125 0.40625q0.921875 0.40625 1.4375 1.25q0.53125 0.84375 0.53125 1.765625q0 0.859375 -0.46875 1.625q-0.453125 0.75 -1.390625 1.203125q1.203125 0.359375 1.859375 1.21875q0.65625 0.859375 0.65625 2.015625q0 0.9375 -0.40625 1.75q-0.390625 0.796875 -0.984375 1.234375q-0.578125 0.4375 -1.453125 0.671875q-0.875 0.21875 -2.15625 0.21875l-5.09375 0zm1.78125 -7.75l2.875 0q1.1875 0 1.6875 -0.140625q0.671875 -0.203125 1.015625 -0.671875q0.34375 -0.46875 0.34375 -1.171875q0 -0.65625 -0.328125 -1.15625q-0.3125 -0.515625 -0.90625 -0.703125q-0.59375 -0.1875 -2.03125 -0.1875l-2.65625 0l0 4.03125zm0 6.171875l3.3125 0q0.859375 0 1.203125 -0.0625q0.609375 -0.109375 1.015625 -0.359375q0.421875 -0.265625 0.6875 -0.75q0.265625 -0.484375 0.265625 -1.125q0 -0.75 -0.390625 -1.296875q-0.375 -0.546875 -1.0625 -0.765625q-0.671875 -0.234375 -1.953125 -0.234375l-3.078125 0l0 4.59375zm16.849823 0.390625q-0.921875 0.765625 -1.765625 1.09375q-0.828125 0.3125 -1.796875 0.3125q-1.59375 0 -2.453125 -0.78125q-0.859375 -0.78125 -0.859375 -1.984375q0 -0.71875 0.328125 -1.296875q0.328125 -0.59375 0.84375 -0.9375q0.53125 -0.359375 1.1875 -0.546875q0.46875 -0.125 1.453125 -0.25q1.984375 -0.234375 2.921875 -0.5625q0.015625 -0.34375 0.015625 -0.421875q0 -1.0 -0.46875 -1.421875q-0.625 -0.546875 -1.875 -0.546875q-1.15625 0 -1.703125 0.40625q-0.546875 0.40625 -0.8125 1.421875l-1.609375 -0.21875q0.21875 -1.015625 0.71875 -1.640625q0.5 -0.640625 1.453125 -0.984375q0.953125 -0.34375 2.1875 -0.34375q1.25 0 2.015625 0.296875q0.78125 0.28125 1.140625 0.734375q0.375 0.4375 0.515625 1.109375q0.078125 0.421875 0.078125 1.515625l0 2.1875q0 2.28125 0.109375 2.890625q0.109375 0.59375 0.40625 1.15625l-1.703125 0q-0.265625 -0.515625 -0.328125 -1.1875zm-0.140625 -3.671875q-0.890625 0.375 -2.671875 0.625q-1.015625 0.140625 -1.4375 0.328125q-0.421875 0.1875 -0.65625 0.53125q-0.21875 0.34375 -0.21875 0.78125q0 0.65625 0.5 1.09375q0.5 0.4375 1.453125 0.4375q0.9375 0 1.671875 -0.40625q0.75 -0.421875 1.09375 -1.140625q0.265625 -0.5625 0.265625 -1.640625l0 -0.609375zm10.516357 1.3125l1.609375 0.21875q-0.265625 1.65625 -1.359375 2.609375q-1.078125 0.9375 -2.671875 0.9375q-1.984375 0 -3.1875 -1.296875q-1.203125 -1.296875 -1.203125 -3.71875q0 -1.578125 0.515625 -2.75q0.515625 -1.171875 1.578125 -1.75q1.0625 -0.59375 2.3125 -0.59375q1.578125 0 2.578125 0.796875q1.0 0.796875 1.28125 2.265625l-1.59375 0.234375q-0.234375 -0.96875 -0.8125 -1.453125q-0.578125 -0.5 -1.390625 -0.5q-1.234375 0 -2.015625 0.890625q-0.78125 0.890625 -0.78125 2.8125q0 1.953125 0.75 2.84375q0.75 0.875 1.953125 0.875q0.96875 0 1.609375 -0.59375q0.65625 -0.59375 0.828125 -1.828125zm3.015625 3.546875l0 -13.359375l1.640625 0l0 7.625l3.890625 -3.9375l2.109375 0l-3.6875 3.59375l4.0625 6.078125l-2.015625 0l-3.203125 -4.953125l-1.15625 1.125l0 3.828125l-1.640625 0zm15.953125 -3.109375l1.6875 0.203125q-0.40625 1.484375 -1.484375 2.3125q-1.078125 0.8125 -2.765625 0.8125q-2.125 0 -3.375 -1.296875q-1.234375 -1.3125 -1.234375 -3.671875q0 -2.453125 1.25 -3.796875q1.265625 -1.34375 3.265625 -1.34375q1.9375 0 3.15625 1.328125q1.234375 1.3125 1.234375 3.703125q0 0.15625 0 0.4375l-7.21875 0q0.09375 1.59375 0.90625 2.453125q0.8125 0.84375 2.015625 0.84375q0.90625 0 1.546875 -0.46875q0.640625 -0.484375 1.015625 -1.515625zm-5.390625 -2.65625l5.40625 0q-0.109375 -1.21875 -0.625 -1.828125q-0.78125 -0.953125 -2.03125 -0.953125q-1.125 0 -1.90625 0.765625q-0.765625 0.75 -0.84375 2.015625zm9.141327 5.765625l0 -9.671875l1.46875 0l0 1.375q1.0625 -1.59375 3.078125 -1.59375q0.875 0 1.609375 0.3125q0.734375 0.3125 1.09375 0.828125q0.375 0.5 0.515625 1.203125q0.09375 0.453125 0.09375 1.59375l0 5.953125l-1.640625 0l0 -5.890625q0 -1.0 -0.203125 -1.484375q-0.1875 -0.5 -0.671875 -0.796875q-0.484375 -0.296875 -1.140625 -0.296875q-1.046875 0 -1.8125 0.671875q-0.75 0.65625 -0.75 2.515625l0 5.28125l-1.640625 0zm16.641357 0l0 -1.21875q-0.90625 1.4375 -2.703125 1.4375q-1.15625 0 -2.125 -0.640625q-0.96875 -0.640625 -1.5 -1.78125q-0.53125 -1.140625 -0.53125 -2.625q0 -1.453125 0.484375 -2.625q0.484375 -1.1875 1.4375 -1.8125q0.96875 -0.625 2.171875 -0.625q0.875 0 1.546875 0.375q0.6875 0.359375 1.109375 0.953125l0 -4.796875l1.640625 0l0 13.359375l-1.53125 0zm-5.171875 -4.828125q0 1.859375 0.78125 2.78125q0.78125 0.921875 1.84375 0.921875q1.078125 0 1.828125 -0.875q0.75 -0.890625 0.75 -2.6875q0 -1.984375 -0.765625 -2.90625q-0.765625 -0.9375 -1.890625 -0.9375q-1.078125 0 -1.8125 0.890625q-0.734375 0.890625 -0.734375 2.8125z" fill-rule="nonzero"/><path fill="#000000" d="m356.9998 274.63715q-1.359375 -1.703125 -2.296875 -4.0q-0.9375 -2.296875 -0.9375 -4.765625q0 -2.15625 0.703125 -4.140625q0.828125 -2.3125 2.53125 -4.59375l1.171875 0q-1.09375 1.890625 -1.453125 2.703125q-0.546875 1.25 -0.875 2.625q-0.390625 1.703125 -0.390625 3.421875q0 4.375 2.71875 8.75l-1.171875 0zm3.322052 -3.921875l0 -13.359375l9.65625 0l0 1.578125l-7.875 0l0 4.09375l7.375 0l0 1.5625l-7.375 0l0 4.546875l8.1875 0l0 1.578125l-9.96875 0zm21.943573 -4.6875l1.765625 0.453125q-0.5625 2.171875 -2.0 3.328125q-1.4375 1.140625 -3.53125 1.140625q-2.15625 0 -3.515625 -0.875q-1.34375 -0.890625 -2.0625 -2.546875q-0.703125 -1.671875 -0.703125 -3.59375q0 -2.078125 0.796875 -3.625q0.796875 -1.5625 2.265625 -2.359375q1.484375 -0.8125 3.25 -0.8125q2.0 0 3.359375 1.015625q1.375 1.015625 1.90625 2.875l-1.734375 0.40625q-0.46875 -1.453125 -1.359375 -2.109375q-0.875 -0.671875 -2.203125 -0.671875q-1.546875 0 -2.578125 0.734375q-1.03125 0.734375 -1.453125 1.984375q-0.421875 1.234375 -0.421875 2.5625q0 1.703125 0.5 2.96875q0.5 1.265625 1.546875 1.90625q1.046875 0.625 2.265625 0.625q1.484375 0 2.515625 -0.859375q1.03125 -0.859375 1.390625 -2.546875zm11.894836 3.109375l0 1.578125l-8.828125 0q-0.015625 -0.59375 0.1875 -1.140625q0.34375 -0.90625 1.078125 -1.78125q0.75 -0.875 2.15625 -2.015625q2.171875 -1.78125 2.9375 -2.828125q0.765625 -1.046875 0.765625 -1.96875q0 -0.984375 -0.703125 -1.640625q-0.6875 -0.671875 -1.8125 -0.671875q-1.1875 0 -1.90625 0.71875q-0.703125 0.703125 -0.703125 1.953125l-1.6875 -0.171875q0.171875 -1.890625 1.296875 -2.875q1.140625 -0.984375 3.03125 -0.984375q1.921875 0 3.046875 1.0625q1.125 1.0625 1.125 2.640625q0 0.796875 -0.328125 1.578125q-0.328125 0.78125 -1.09375 1.640625q-0.75 0.84375 -2.53125 2.34375q-1.46875 1.234375 -1.890625 1.6875q-0.421875 0.4375 -0.6875 0.875l6.546875 0zm7.902771 1.578125l0 -13.359375l1.765625 0l0 13.359375l-1.765625 0zm4.6832886 0l0 -9.671875l1.46875 0l0 1.375q1.0625 -1.59375 3.078125 -1.59375q0.875 0 1.609375 0.3125q0.734375 0.3125 1.09375 0.828125q0.375 0.5 0.515625 1.203125q0.09375 0.453125 0.09375 1.59375l0 5.953125l-1.640625 0l0 -5.890625q0 -1.0 -0.203125 -1.484375q-0.1875 -0.5 -0.671875 -0.796875q-0.484375 -0.296875 -1.140625 -0.296875q-1.046875 0 -1.8125 0.671875q-0.75 0.65625 -0.75 2.515625l0 5.28125l-1.640625 0zm9.719482 -2.890625l1.625 -0.25q0.125 0.96875 0.75 1.5q0.625 0.515625 1.75 0.515625q1.125 0 1.671875 -0.453125q0.546875 -0.46875 0.546875 -1.09375q0 -0.546875 -0.484375 -0.875q-0.328125 -0.21875 -1.671875 -0.546875q-1.8125 -0.46875 -2.515625 -0.796875q-0.6875 -0.328125 -1.046875 -0.90625q-0.359375 -0.59375 -0.359375 -1.3125q0 -0.640625 0.296875 -1.1875q0.296875 -0.5625 0.8125 -0.921875q0.375 -0.28125 1.03125 -0.46875q0.671875 -0.203125 1.421875 -0.203125q1.140625 0 2.0 0.328125q0.859375 0.328125 1.265625 0.890625q0.421875 0.5625 0.578125 1.5l-1.609375 0.21875q-0.109375 -0.75 -0.640625 -1.171875q-0.515625 -0.421875 -1.46875 -0.421875q-1.140625 0 -1.625 0.375q-0.46875 0.375 -0.46875 0.875q0 0.3125 0.1875 0.578125q0.203125 0.265625 0.640625 0.4375q0.234375 0.09375 1.4375 0.421875q1.75 0.453125 2.4375 0.75q0.6875 0.296875 1.078125 0.859375q0.390625 0.5625 0.390625 1.40625q0 0.828125 -0.484375 1.546875q-0.46875 0.71875 -1.375 1.125q-0.90625 0.390625 -2.046875 0.390625q-1.875 0 -2.875 -0.78125q-0.984375 -0.78125 -1.25 -2.328125zm13.5625 1.421875l0.234375 1.453125q-0.6875 0.140625 -1.234375 0.140625q-0.890625 0 -1.390625 -0.28125q-0.484375 -0.28125 -0.6875 -0.734375q-0.203125 -0.46875 -0.203125 -1.9375l0 -5.578125l-1.203125 0l0 -1.265625l1.203125 0l0 -2.390625l1.625 -0.984375l0 3.375l1.65625 0l0 1.265625l-1.65625 0l0 5.671875q0 0.6875 0.078125 0.890625q0.09375 0.203125 0.28125 0.328125q0.203125 0.109375 0.578125 0.109375q0.265625 0 0.71875 -0.0625zm7.9176636 0.28125q-0.921875 0.765625 -1.765625 1.09375q-0.828125 0.3125 -1.796875 0.3125q-1.59375 0 -2.453125 -0.78125q-0.859375 -0.78125 -0.859375 -1.984375q0 -0.71875 0.328125 -1.296875q0.328125 -0.59375 0.84375 -0.9375q0.53125 -0.359375 1.1875 -0.546875q0.46875 -0.125 1.453125 -0.25q1.984375 -0.234375 2.921875 -0.5625q0.015625 -0.34375 0.015625 -0.421875q0 -1.0 -0.46875 -1.421875q-0.625 -0.546875 -1.875 -0.546875q-1.15625 0 -1.703125 0.40625q-0.546875 0.40625 -0.8125 1.421875l-1.609375 -0.21875q0.21875 -1.015625 0.71875 -1.640625q0.5 -0.640625 1.453125 -0.984375q0.953125 -0.34375 2.1875 -0.34375q1.25 0 2.015625 0.296875q0.78125 0.28125 1.140625 0.734375q0.375 0.4375 0.515625 1.109375q0.078125 0.421875 0.078125 1.515625l0 2.1875q0 2.28125 0.109375 2.890625q0.109375 0.59375 0.40625 1.15625l-1.703125 0q-0.265625 -0.515625 -0.328125 -1.1875zm-0.140625 -3.671875q-0.890625 0.375 -2.671875 0.625q-1.015625 0.140625 -1.4375 0.328125q-0.421875 0.1875 -0.65625 0.53125q-0.21875 0.34375 -0.21875 0.78125q0 0.65625 0.5 1.09375q0.5 0.4375 1.453125 0.4375q0.9375 0 1.671875 -0.40625q0.75 -0.421875 1.09375 -1.140625q0.265625 -0.5625 0.265625 -1.640625l0 -0.609375zm4.2038574 4.859375l0 -9.671875l1.46875 0l0 1.375q1.0625 -1.59375 3.078125 -1.59375q0.875 0 1.609375 0.3125q0.734375 0.3125 1.09375 0.828125q0.375 0.5 0.515625 1.203125q0.09375 0.453125 0.09375 1.59375l0 5.953125l-1.640625 0l0 -5.890625q0 -1.0 -0.203125 -1.484375q-0.1875 -0.5 -0.671875 -0.796875q-0.484375 -0.296875 -1.140625 -0.296875q-1.046875 0 -1.8125 0.671875q-0.75 0.65625 -0.75 2.515625l0 5.28125l-1.640625 0zm16.688202 -3.546875l1.609375 0.21875q-0.265625 1.65625 -1.359375 2.609375q-1.078125 0.9375 -2.671875 0.9375q-1.984375 0 -3.1875 -1.296875q-1.203125 -1.296875 -1.203125 -3.71875q0 -1.578125 0.515625 -2.75q0.515625 -1.171875 1.578125 -1.75q1.0625 -0.59375 2.3125 -0.59375q1.578125 0 2.578125 0.796875q1.0 0.796875 1.28125 2.265625l-1.59375 0.234375q-0.234375 -0.96875 -0.8125 -1.453125q-0.578125 -0.5 -1.390625 -0.5q-1.234375 0 -2.015625 0.890625q-0.78125 0.890625 -0.78125 2.8125q0 1.953125 0.75 2.84375q0.75 0.875 1.953125 0.875q0.96875 0 1.609375 -0.59375q0.65625 -0.59375 0.828125 -1.828125zm9.640625 0.4375l1.6875 0.203125q-0.40625 1.484375 -1.484375 2.3125q-1.078125 0.8125 -2.765625 0.8125q-2.125 0 -3.375 -1.296875q-1.234375 -1.3125 -1.234375 -3.671875q0 -2.453125 1.25 -3.796875q1.265625 -1.34375 3.265625 -1.34375q1.9375 0 3.15625 1.328125q1.234375 1.3125 1.234375 3.703125q0 0.15625 0 0.4375l-7.21875 0q0.09375 1.59375 0.90625 2.453125q0.8125 0.84375 2.015625 0.84375q0.90625 0 1.546875 -0.46875q0.640625 -0.484375 1.015625 -1.515625zm-5.390625 -2.65625l5.40625 0q-0.109375 -1.21875 -0.625 -1.828125q-0.78125 -0.953125 -2.03125 -0.953125q-1.125 0 -1.90625 0.765625q-0.765625 0.75 -0.84375 2.015625zm10.219482 9.6875l-1.1875 0q2.734375 -4.375 2.734375 -8.75q0 -1.71875 -0.390625 -3.390625q-0.3125 -1.375 -0.875 -2.625q-0.359375 -0.828125 -1.46875 -2.734375l1.1875 0q1.703125 2.28125 2.53125 4.59375q0.6875 1.984375 0.6875 4.140625q0 2.46875 -0.9375 4.765625q-0.9375 2.296875 -2.28125 4.0z" fill-rule="nonzero"/><path fill="#efefef" d="m485.9239 80.234l0 0c0 -11.170586 9.055542 -20.226128 20.226135 -20.226128l80.90204 0l0 0c5.364319 0 10.508911 2.1309624 14.302063 5.924095c3.7931519 3.7931366 5.9240723 8.937729 5.9240723 14.302032l0 345.12253c0 11.170593 -9.055542 20.226135 -20.226135 20.226135l-80.90204 0c-11.170593 0 -20.226135 -9.055542 -20.226135 -20.226135z" fill-rule="evenodd"/><path stroke="#000000" stroke-width="1.0" stroke-linejoin="round" stroke-linecap="butt" d="m485.9239 80.234l0 0c0 -11.170586 9.055542 -20.226128 20.226135 -20.226128l80.90204 0l0 0c5.364319 0 10.508911 2.1309624 14.302063 5.924095c3.7931519 3.7931366 5.9240723 8.937729 5.9240723 14.302032l0 345.12253c0 11.170593 -9.055542 20.226135 -20.226135 20.226135l-80.90204 0c-11.170593 0 -20.226135 -9.055542 -20.226135 -20.226135z" fill-rule="evenodd"/><path fill="#000000" d="m518.48083 259.71527l0 -13.359375l1.8125 0l7.015625 10.484375l0 -10.484375l1.6875 0l0 13.359375l-1.8125 0l-7.015625 -10.5l0 10.5l-1.6875 0zm19.738586 -5.234375l0 -1.578125l5.65625 0l0 4.953125q-1.296875 1.046875 -2.6875 1.578125q-1.375 0.515625 -2.84375 0.515625q-1.96875 0 -3.578125 -0.84375q-1.609375 -0.84375 -2.421875 -2.4375q-0.8125 -1.59375 -0.8125 -3.5625q0 -1.953125 0.8125 -3.640625q0.8125 -1.6875 2.34375 -2.5q1.53125 -0.828125 3.515625 -0.828125q1.453125 0 2.625 0.46875q1.171875 0.46875 1.828125 1.3125q0.671875 0.828125 1.015625 2.171875l-1.59375 0.4375q-0.296875 -1.015625 -0.75 -1.59375q-0.4375 -0.59375 -1.265625 -0.9375q-0.828125 -0.34375 -1.84375 -0.34375q-1.203125 0 -2.09375 0.375q-0.890625 0.359375 -1.4375 0.96875q-0.53125 0.59375 -0.828125 1.3125q-0.515625 1.234375 -0.515625 2.6875q0 1.78125 0.609375 2.984375q0.625 1.203125 1.796875 1.796875q1.171875 0.578125 2.5 0.578125q1.140625 0 2.234375 -0.4375q1.09375 -0.453125 1.65625 -0.953125l0 -2.484375l-3.921875 0zm8.558289 5.234375l0 -13.359375l1.765625 0l0 13.359375l-1.765625 0zm4.8707886 0l0 -13.359375l1.8125 0l7.015625 10.484375l0 -10.484375l1.6875 0l0 13.359375l-1.8125 0l-7.015625 -10.5l0 10.5l-1.6875 0zm12.129211 0l5.171875 -6.953125l-4.5625 -6.40625l2.109375 0l2.421875 3.4375q0.75 1.0625 1.078125 1.625q0.4375 -0.71875 1.046875 -1.515625l2.6875 -3.546875l1.921875 0l-4.6875 6.296875l5.0625 7.0625l-2.1875 0l-3.359375 -4.765625q-0.28125 -0.40625 -0.59375 -0.890625q-0.4375 0.734375 -0.625 1.0l-3.359375 4.65625l-2.125 0z" fill-rule="nonzero"/><path fill="#ffffff" d="m698.1234 301.43832l114.17322 0l0 105.88977l-114.17322 0z" fill-rule="evenodd"/><path stroke="#000000" stroke-width="1.0" stroke-linejoin="round" stroke-linecap="butt" d="m698.1234 301.43832l114.17322 0l0 105.88977l-114.17322 0z" fill-rule="evenodd"/><path fill="#d9d9d9" d="m643.40424 73.32573l0 0c0 -7.3552475 5.9625854 -13.317856 13.317871 -13.317856l180.73438 0c3.5321045 0 6.9195557 1.4031258 9.417114 3.9007072c2.4976196 2.4975853 3.9007568 5.885029 3.9007568 9.417149l0 53.269806c0 7.35524 -5.9626465 13.317856 -13.317871 13.317856l-180.73438 0l0 0c-7.3552856 0 -13.317871 -5.962616 -13.317871 -13.317856z" fill-rule="evenodd"/><path stroke="#000000" stroke-width="1.0" stroke-linejoin="round" stroke-linecap="butt" d="m643.40424 73.32573l0 0c0 -7.3552475 5.9625854 -13.317856 13.317871 -13.317856l180.73438 0c3.5321045 0 6.9195557 1.4031258 9.417114 3.9007072c2.4976196 2.4975853 3.9007568 5.885029 3.9007568 9.417149l0 53.269806c0 7.35524 -5.9626465 13.317856 -13.317871 13.317856l-180.73438 0l0 0c-7.3552856 0 -13.317871 -5.962616 -13.317871 -13.317856z" fill-rule="evenodd"/><path fill="#000000" d="m703.3466 102.583755l1.65625 -0.140625q0.125 1.0 0.546875 1.640625q0.4375 0.640625 1.34375 1.046875q0.921875 0.390625 2.0625 0.390625q1.0 0 1.78125 -0.296875q0.78125 -0.296875 1.15625 -0.8125q0.375 -0.53125 0.375 -1.15625q0 -0.625 -0.375 -1.09375q-0.359375 -0.46875 -1.1875 -0.796875q-0.546875 -0.203125 -2.390625 -0.640625q-1.828125 -0.453125 -2.5625 -0.84375q-0.96875 -0.5 -1.4375 -1.234375q-0.46875 -0.75 -0.46875 -1.671875q0 -1.0 0.578125 -1.875q0.578125 -0.890625 1.671875 -1.34375q1.109375 -0.453125 2.453125 -0.453125q1.484375 0 2.609375 0.484375q1.140625 0.46875 1.75 1.40625q0.609375 0.921875 0.65625 2.09375l-1.6875 0.125q-0.140625 -1.265625 -0.9375 -1.90625q-0.78125 -0.65625 -2.3125 -0.65625q-1.609375 0 -2.34375 0.59375q-0.734375 0.59375 -0.734375 1.421875q0 0.71875 0.53125 1.171875q0.5 0.46875 2.65625 0.96875q2.15625 0.484375 2.953125 0.84375q1.171875 0.53125 1.71875 1.359375q0.5625 0.828125 0.5625 1.90625q0 1.0625 -0.609375 2.015625q-0.609375 0.9375 -1.75 1.46875q-1.140625 0.515625 -2.578125 0.515625q-1.8125 0 -3.046875 -0.53125q-1.21875 -0.53125 -1.921875 -1.59375q-0.6875 -1.0625 -0.71875 -2.40625zm19.162292 4.296875l0 -1.421875q-1.125 1.640625 -3.0625 1.640625q-0.859375 0 -1.609375 -0.328125q-0.734375 -0.328125 -1.09375 -0.828125q-0.359375 -0.5 -0.5 -1.21875q-0.109375 -0.46875 -0.109375 -1.53125l0 -5.984375l1.640625 0l0 5.359375q0 1.28125 0.109375 1.734375q0.15625 0.640625 0.65625 1.015625q0.5 0.375 1.234375 0.375q0.734375 0 1.375 -0.375q0.65625 -0.390625 0.921875 -1.03125q0.265625 -0.65625 0.265625 -1.890625l0 -5.1875l1.640625 0l0 9.671875l-1.46875 0zm4.0476074 3.703125l0 -13.375l1.484375 0l0 1.25q0.53125 -0.734375 1.1875 -1.09375q0.671875 -0.375 1.625 -0.375q1.234375 0 2.171875 0.640625q0.953125 0.625 1.4375 1.796875q0.484375 1.15625 0.484375 2.546875q0 1.484375 -0.53125 2.671875q-0.53125 1.1875 -1.546875 1.828125q-1.015625 0.625 -2.140625 0.625q-0.8125 0 -1.46875 -0.34375q-0.65625 -0.34375 -1.0625 -0.875l0 4.703125l-1.640625 0zm1.484375 -8.484375q0 1.859375 0.75 2.765625q0.765625 0.890625 1.828125 0.890625q1.09375 0 1.875 -0.921875q0.78125 -0.9375 0.78125 -2.875q0 -1.84375 -0.765625 -2.765625q-0.75 -0.921875 -1.8125 -0.921875q-1.046875 0 -1.859375 0.984375q-0.796875 0.96875 -0.796875 2.84375zm15.516357 1.671875l1.6875 0.203125q-0.40625 1.484375 -1.484375 2.3125q-1.078125 0.8125 -2.765625 0.8125q-2.125 0 -3.375 -1.296875q-1.234375 -1.3125 -1.234375 -3.671875q0 -2.453125 1.25 -3.796875q1.265625 -1.34375 3.265625 -1.34375q1.9375 0 3.15625 1.328125q1.234375 1.3125 1.234375 3.703125q0 0.15625 0 0.4375l-7.21875 0q0.09375 1.59375 0.90625 2.453125q0.8125 0.84375 2.015625 0.84375q0.90625 0 1.546875 -0.46875q0.640625 -0.484375 1.015625 -1.515625zm-5.390625 -2.65625l5.40625 0q-0.109375 -1.21875 -0.625 -1.828125q-0.78125 -0.953125 -2.03125 -0.953125q-1.125 0 -1.90625 0.765625q-0.765625 0.75 -0.84375 2.015625zm9.125671 5.765625l0 -9.671875l1.46875 0l0 1.46875q0.5625 -1.03125 1.03125 -1.359375q0.484375 -0.328125 1.0625 -0.328125q0.828125 0 1.6875 0.53125l-0.5625 1.515625q-0.609375 -0.359375 -1.203125 -0.359375q-0.546875 0 -0.96875 0.328125q-0.421875 0.328125 -0.609375 0.890625q-0.28125 0.875 -0.28125 1.921875l0 5.0625l-1.625 0zm8.9158325 0l-3.6875 -9.671875l1.734375 0l2.078125 5.796875q0.328125 0.9375 0.625 1.9375q0.203125 -0.765625 0.609375 -1.828125l2.140625 -5.90625l1.6875 0l-3.65625 9.671875l-1.53125 0zm6.640625 -11.46875l0 -1.890625l1.640625 0l0 1.890625l-1.640625 0zm0 11.46875l0 -9.671875l1.640625 0l0 9.671875l-1.640625 0zm3.4885864 -2.890625l1.625 -0.25q0.125 0.96875 0.75 1.5q0.625 0.515625 1.75 0.515625q1.125 0 1.671875 -0.453125q0.546875 -0.46875 0.546875 -1.09375q0 -0.546875 -0.484375 -0.875q-0.328125 -0.21875 -1.671875 -0.546875q-1.8125 -0.46875 -2.515625 -0.796875q-0.6875 -0.328125 -1.046875 -0.90625q-0.359375 -0.59375 -0.359375 -1.3125q0 -0.640625 0.296875 -1.1875q0.296875 -0.5625 0.8125 -0.921875q0.375 -0.28125 1.03125 -0.46875q0.671875 -0.203125 1.421875 -0.203125q1.140625 0 2.0 0.328125q0.859375 0.328125 1.265625 0.890625q0.421875 0.5625 0.578125 1.5l-1.609375 0.21875q-0.109375 -0.75 -0.640625 -1.171875q-0.515625 -0.421875 -1.46875 -0.421875q-1.140625 0 -1.625 0.375q-0.46875 0.375 -0.46875 0.875q0 0.3125 0.1875 0.578125q0.203125 0.265625 0.640625 0.4375q0.234375 0.09375 1.4375 0.421875q1.75 0.453125 2.4375 0.75q0.6875 0.296875 1.078125 0.859375q0.390625 0.5625 0.390625 1.40625q0 0.828125 -0.484375 1.546875q-0.46875 0.71875 -1.375 1.125q-0.90625 0.390625 -2.046875 0.390625q-1.875 0 -2.875 -0.78125q-0.984375 -0.78125 -1.25 -2.328125zm9.375 -1.953125q0 -2.6875 1.484375 -3.96875q1.25 -1.078125 3.046875 -1.078125q2.0 0 3.265625 1.3125q1.265625 1.296875 1.265625 3.609375q0 1.859375 -0.5625 2.9375q-0.5625 1.0625 -1.640625 1.65625q-1.0625 0.59375 -2.328125 0.59375q-2.03125 0 -3.28125 -1.296875q-1.25 -1.3125 -1.25 -3.765625zm1.6875 0q0 1.859375 0.796875 2.796875q0.8125 0.921875 2.046875 0.921875q1.21875 0 2.03125 -0.921875q0.8125 -0.9375 0.8125 -2.84375q0 -1.796875 -0.8125 -2.71875q-0.8125 -0.921875 -2.03125 -0.921875q-1.234375 0 -2.046875 0.921875q-0.796875 0.90625 -0.796875 2.765625zm9.281921 4.84375l0 -9.671875l1.46875 0l0 1.46875q0.5625 -1.03125 1.03125 -1.359375q0.484375 -0.328125 1.0625 -0.328125q0.828125 0 1.6875 0.53125l-0.5625 1.515625q-0.609375 -0.359375 -1.203125 -0.359375q-0.546875 0 -0.96875 0.328125q-0.421875 0.328125 -0.609375 0.890625q-0.28125 0.875 -0.28125 1.921875l0 5.0625l-1.625 0z" fill-rule="nonzero"/><path fill="#ffffff" d="m711.0683 313.83466l114.17322 0l0 105.88974l-114.17322 0z" fill-rule="evenodd"/><path stroke="#000000" stroke-width="1.0" stroke-linejoin="round" stroke-linecap="butt" d="m711.0683 313.83466l114.17322 0l0 105.88974l-114.17322 0z" fill-rule="evenodd"/><path fill="#ffffff" d="m724.0124 327.26773l114.17322 0l0 105.88974l-114.17322 0z" fill-rule="evenodd"/><path stroke="#000000" stroke-width="1.0" stroke-linejoin="round" stroke-linecap="butt" d="m724.0124 327.26773l114.17322 0l0 105.88974l-114.17322 0z" fill-rule="evenodd"/><path fill="#000000" d="m750.9365 370.89822l0 -1.578125l5.65625 0l0 4.953125q-1.296875 1.046875 -2.6875 1.578125q-1.375 0.515625 -2.84375 0.515625q-1.96875 0 -3.578125 -0.84375q-1.609375 -0.84375 -2.421875 -2.4375q-0.8125 -1.59375 -0.8125 -3.5625q0 -1.953125 0.8125 -3.640625q0.8125 -1.6875 2.34375 -2.5q1.53125 -0.828125 3.515625 -0.828125q1.453125 0 2.625 0.46875q1.171875 0.46875 1.828125 1.3125q0.671875 0.828125 1.015625 2.171875l-1.59375 0.4375q-0.296875 -1.015625 -0.75 -1.59375q-0.4375 -0.59375 -1.265625 -0.9375q-0.828125 -0.34375 -1.84375 -0.34375q-1.203125 0 -2.09375 0.375q-0.890625 0.359375 -1.4375 0.96875q-0.53125 0.59375 -0.828125 1.3125q-0.515625 1.234375 -0.515625 2.6875q0 1.78125 0.609375 2.984375q0.625 1.203125 1.796875 1.796875q1.171875 0.578125 2.5 0.578125q1.140625 0 2.234375 -0.4375q1.09375 -0.453125 1.65625 -0.953125l0 -2.484375l-3.921875 0zm14.386414 5.234375l0 -1.421875q-1.125 1.640625 -3.0625 1.640625q-0.859375 0 -1.609375 -0.328125q-0.734375 -0.328125 -1.09375 -0.828125q-0.359375 -0.5 -0.5 -1.21875q-0.109375 -0.46875 -0.109375 -1.53125l0 -5.984375l1.640625 0l0 5.359375q0 1.28125 0.109375 1.734375q0.15625 0.640625 0.65625 1.015625q0.5 0.375 1.234375 0.375q0.734375 0 1.375 -0.375q0.65625 -0.390625 0.921875 -1.03125q0.265625 -0.65625 0.265625 -1.890625l0 -5.1875l1.640625 0l0 9.671875l-1.46875 0zm4.0476074 0l0 -9.671875l1.46875 0l0 1.375q1.0625 -1.59375 3.078125 -1.59375q0.875 0 1.609375 0.3125q0.734375 0.3125 1.09375 0.828125q0.375 0.5 0.515625 1.203125q0.09375 0.453125 0.09375 1.59375l0 5.953125l-1.640625 0l0 -5.890625q0 -1.0 -0.203125 -1.484375q-0.1875 -0.5 -0.671875 -0.796875q-0.484375 -0.296875 -1.140625 -0.296875q-1.046875 0 -1.8125 0.671875q-0.75 0.65625 -0.75 2.515625l0 5.28125l-1.640625 0zm10.375732 -11.46875l0 -1.890625l1.640625 0l0 1.890625l-1.640625 0zm0 11.46875l0 -9.671875l1.640625 0l0 9.671875l-1.640625 0zm10.457336 -3.546875l1.609375 0.21875q-0.265625 1.65625 -1.359375 2.609375q-1.078125 0.9375 -2.671875 0.9375q-1.984375 0 -3.1875 -1.296875q-1.203125 -1.296875 -1.203125 -3.71875q0 -1.578125 0.515625 -2.75q0.515625 -1.171875 1.578125 -1.75q1.0625 -0.59375 2.3125 -0.59375q1.578125 0 2.578125 0.796875q1.0 0.796875 1.28125 2.265625l-1.59375 0.234375q-0.234375 -0.96875 -0.8125 -1.453125q-0.578125 -0.5 -1.390625 -0.5q-1.234375 0 -2.015625 0.890625q-0.78125 0.890625 -0.78125 2.8125q0 1.953125 0.75 2.84375q0.75 0.875 1.953125 0.875q0.96875 0 1.609375 -0.59375q0.65625 -0.59375 0.828125 -1.828125zm2.40625 -1.296875q0 -2.6875 1.484375 -3.96875q1.25 -1.078125 3.046875 -1.078125q2.0 0 3.265625 1.3125q1.265625 1.296875 1.265625 3.609375q0 1.859375 -0.5625 2.9375q-0.5625 1.0625 -1.640625 1.65625q-1.0625 0.59375 -2.328125 0.59375q-2.03125 0 -3.28125 -1.296875q-1.25 -1.3125 -1.25 -3.765625zm1.6875 0q0 1.859375 0.796875 2.796875q0.8125 0.921875 2.046875 0.921875q1.21875 0 2.03125 -0.921875q0.8125 -0.9375 0.8125 -2.84375q0 -1.796875 -0.8125 -2.71875q-0.8125 -0.921875 -2.03125 -0.921875q-1.234375 0 -2.046875 0.921875q-0.796875 0.90625 -0.796875 2.765625zm9.281921 4.84375l0 -9.671875l1.46875 0l0 1.46875q0.5625 -1.03125 1.03125 -1.359375q0.484375 -0.328125 1.0625 -0.328125q0.828125 0 1.6875 0.53125l-0.5625 1.515625q-0.609375 -0.359375 -1.203125 -0.359375q-0.546875 0 -0.96875 0.328125q-0.421875 0.328125 -0.609375 0.890625q-0.28125 0.875 -0.28125 1.921875l0 5.0625l-1.625 0zm6.2283325 0l0 -9.671875l1.46875 0l0 1.375q1.0625 -1.59375 3.078125 -1.59375q0.875 0 1.609375 0.3125q0.734375 0.3125 1.09375 0.828125q0.375 0.5 0.515625 1.203125q0.09375 0.453125 0.09375 1.59375l0 5.953125l-1.640625 0l0 -5.890625q0 -1.0 -0.203125 -1.484375q-0.1875 -0.5 -0.671875 -0.796875q-0.484375 -0.296875 -1.140625 -0.296875q-1.046875 0 -1.8125 0.671875q-0.75 0.65625 -0.75 2.515625l0 5.28125l-1.640625 0z" fill-rule="nonzero"/><path fill="#000000" d="m751.4616 398.1326l-2.96875 -9.671875l1.703125 0l1.53125 5.578125l0.578125 2.078125q0.046875 -0.15625 0.5 -2.0l1.546875 -5.65625l1.6875 0l1.4375 5.609375l0.484375 1.84375l0.5625 -1.859375l1.65625 -5.59375l1.59375 0l-3.03125 9.671875l-1.703125 0l-1.53125 -5.796875l-0.375 -1.640625l-1.953125 7.4375l-1.71875 0zm11.082336 -4.84375q0 -2.6875 1.484375 -3.96875q1.25 -1.078125 3.046875 -1.078125q2.0 0 3.265625 1.3125q1.265625 1.296875 1.265625 3.609375q0 1.859375 -0.5625 2.9375q-0.5625 1.0625 -1.640625 1.65625q-1.0625 0.59375 -2.328125 0.59375q-2.03125 0 -3.28125 -1.296875q-1.25 -1.3125 -1.25 -3.765625zm1.6875 0q0 1.859375 0.796875 2.796875q0.8125 0.921875 2.046875 0.921875q1.21875 0 2.03125 -0.921875q0.8125 -0.9375 0.8125 -2.84375q0 -1.796875 -0.8125 -2.71875q-0.8125 -0.921875 -2.03125 -0.921875q-1.234375 0 -2.046875 0.921875q-0.796875 0.90625 -0.796875 2.765625zm9.281982 4.84375l0 -9.671875l1.46875 0l0 1.46875q0.5625 -1.03125 1.03125 -1.359375q0.484375 -0.328125 1.0625 -0.328125q0.828125 0 1.6875 0.53125l-0.5625 1.515625q-0.609375 -0.359375 -1.203125 -0.359375q-0.546875 0 -0.96875 0.328125q-0.421875 0.328125 -0.609375 0.890625q-0.28125 0.875 -0.28125 1.921875l0 5.0625l-1.625 0zm6.2282715 0l0 -13.359375l1.640625 0l0 7.625l3.890625 -3.9375l2.109375 0l-3.6875 3.59375l4.0625 6.078125l-2.015625 0l-3.203125 -4.953125l-1.15625 1.125l0 3.828125l-1.640625 0zm15.953125 -3.109375l1.6875 0.203125q-0.40625 1.484375 -1.484375 2.3125q-1.078125 0.8125 -2.765625 0.8125q-2.125 0 -3.375 -1.296875q-1.234375 -1.3125 -1.234375 -3.671875q0 -2.453125 1.25 -3.796875q1.265625 -1.34375 3.265625 -1.34375q1.9375 0 3.15625 1.328125q1.234375 1.3125 1.234375 3.703125q0 0.15625 0 0.4375l-7.21875 0q0.09375 1.59375 0.90625 2.453125q0.8125 0.84375 2.015625 0.84375q0.90625 0 1.546875 -0.46875q0.640625 -0.484375 1.015625 -1.515625zm-5.390625 -2.65625l5.40625 0q-0.109375 -1.21875 -0.625 -1.828125q-0.78125 -0.953125 -2.03125 -0.953125q-1.125 0 -1.90625 0.765625q-0.765625 0.75 -0.84375 2.015625zm9.125732 5.765625l0 -9.671875l1.46875 0l0 1.46875q0.5625 -1.03125 1.03125 -1.359375q0.484375 -0.328125 1.0625 -0.328125q0.828125 0 1.6875 0.53125l-0.5625 1.515625q-0.609375 -0.359375 -1.203125 -0.359375q-0.546875 0 -0.96875 0.328125q-0.421875 0.328125 -0.609375 0.890625q-0.28125 0.875 -0.28125 1.921875l0 5.0625l-1.625 0zm5.5720825 -2.890625l1.625 -0.25q0.125 0.96875 0.75 1.5q0.625 0.515625 1.75 0.515625q1.125 0 1.671875 -0.453125q0.546875 -0.46875 0.546875 -1.09375q0 -0.546875 -0.484375 -0.875q-0.328125 -0.21875 -1.671875 -0.546875q-1.8125 -0.46875 -2.515625 -0.796875q-0.6875 -0.328125 -1.046875 -0.90625q-0.359375 -0.59375 -0.359375 -1.3125q0 -0.640625 0.296875 -1.1875q0.296875 -0.5625 0.8125 -0.921875q0.375 -0.28125 1.03125 -0.46875q0.671875 -0.203125 1.421875 -0.203125q1.140625 0 2.0 0.328125q0.859375 0.328125 1.265625 0.890625q0.421875 0.5625 0.578125 1.5l-1.609375 0.21875q-0.109375 -0.75 -0.640625 -1.171875q-0.515625 -0.421875 -1.46875 -0.421875q-1.140625 0 -1.625 0.375q-0.46875 0.375 -0.46875 0.875q0 0.3125 0.1875 0.578125q0.203125 0.265625 0.640625 0.4375q0.234375 0.09375 1.4375 0.421875q1.75 0.453125 2.4375 0.75q0.6875 0.296875 1.078125 0.859375q0.390625 0.5625 0.390625 1.40625q0 0.828125 -0.484375 1.546875q-0.46875 0.71875 -1.375 1.125q-0.90625 0.390625 -2.046875 0.390625q-1.875 0 -2.875 -0.78125q-0.984375 -0.78125 -1.25 -2.328125z" fill-rule="nonzero"/><path fill="#000000" fill-opacity="0.0" d="m747.0893 139.91339l34.015747 187.37009" fill-rule="evenodd"/><path stroke="#000000" stroke-width="1.0" stroke-linejoin="round" stroke-linecap="butt" d="m747.0893 139.91339l34.015747 187.37009" fill-rule="evenodd"/><path fill="#000000" fill-opacity="0.0" d="m747.0893 139.91339l21.070862 173.92126" fill-rule="evenodd"/><path stroke="#000000" stroke-width="1.0" stroke-linejoin="round" stroke-linecap="butt" d="m747.0893 139.91339l21.070862 173.92126" fill-rule="evenodd"/><path fill="#000000" fill-opacity="0.0" d="m711.0683 366.77954l-103.77954 -113.98427" fill-rule="evenodd"/><path stroke="#000000" stroke-width="1.0" stroke-linejoin="round" stroke-linecap="butt" d="m707.02893 362.34293l-95.700745 -105.111084" fill-rule="evenodd"/><path fill="#000000" stroke="#000000" stroke-width="1.0" stroke-linecap="butt" d="m705.8076 363.45493l4.2764893 2.2436218l-1.8338623 -4.467621z" fill-rule="evenodd"/><path fill="#000000" stroke="#000000" stroke-width="1.0" stroke-linecap="butt" d="m612.5495 256.11987l-4.2765503 -2.2436218l1.8338623 4.467621z" fill-rule="evenodd"/><path fill="#000000" fill-opacity="0.0" d="m781.099 433.15747l-173.82678 -180.34645" fill-rule="evenodd"/><path stroke="#000000" stroke-width="1.0" stroke-linejoin="round" stroke-linecap="butt" d="m776.9352 428.83746l-165.49915 -171.70642" fill-rule="evenodd"/><path fill="#000000" stroke="#000000" stroke-width="1.0" stroke-linecap="butt" d="m775.7459 429.98373l4.338562 2.1211853l-1.960083 -4.4136963z" fill-rule="evenodd"/><path fill="#000000" stroke="#000000" stroke-width="1.0" stroke-linecap="butt" d="m612.6253 255.98477l-4.338562 -2.12117l1.960083 4.413681z" fill-rule="evenodd"/><path fill="#000000" fill-opacity="0.0" d="m129.17848 159.7874l0 183.68504" fill-rule="evenodd"/><path stroke="#000000" stroke-width="1.0" stroke-linejoin="round" stroke-linecap="butt" d="m129.17848 165.7874l0 171.68504" fill-rule="evenodd"/><path fill="#000000" stroke="#000000" stroke-width="1.0" stroke-linecap="butt" d="m130.83022 165.7874l-1.6517334 -4.538101l-1.6517334 4.538101z" fill-rule="evenodd"/><path fill="#000000" stroke="#000000" stroke-width="1.0" stroke-linecap="butt" d="m127.52675 337.47244l1.6517334 4.538086l1.6517334 -4.538086z" fill-rule="evenodd"/><path fill="#000000" fill-opacity="0.0" d="m129.17848 177.59584l170.29921 0l0 49.732285l-170.29921 0z" fill-rule="evenodd"/><path fill="#000000" d="m143.03786 197.88545l-1.140625 0l0 -7.3125q-0.421875 0.390625 -1.09375 0.796875q-0.671875 0.390625 -1.203125 0.578125l0 -1.109375q0.96875 -0.453125 1.6875 -1.09375q0.71875 -0.640625 1.015625 -1.25l0.734375 0l0 9.390625zm3.592865 0l0 -1.3125l1.3125 0l0 1.3125l-1.3125 0zm7.023987 0l0 -9.34375l3.515625 0q1.0625 0 1.703125 0.28125q0.65625 0.28125 1.015625 0.875q0.375 0.578125 0.375 1.234375q0 0.59375 -0.328125 1.125q-0.328125 0.53125 -0.984375 0.859375q0.859375 0.25 1.3125 0.84375q0.453125 0.59375 0.453125 1.421875q0 0.65625 -0.28125 1.21875q-0.265625 0.5625 -0.6875 0.875q-0.40625 0.296875 -1.015625 0.453125q-0.609375 0.15625 -1.515625 0.15625l-3.5625 0zm1.234375 -5.421875l2.03125 0q0.8125 0 1.171875 -0.109375q0.484375 -0.140625 0.71875 -0.46875q0.234375 -0.328125 0.234375 -0.8125q0 -0.46875 -0.21875 -0.8125q-0.21875 -0.359375 -0.640625 -0.484375q-0.40625 -0.140625 -1.421875 -0.140625l-1.875 0l0 2.828125zm0 4.3125l2.328125 0q0.609375 0 0.84375 -0.03125q0.4375 -0.078125 0.71875 -0.25q0.28125 -0.1875 0.46875 -0.53125q0.1875 -0.34375 0.1875 -0.78125q0 -0.53125 -0.265625 -0.90625q-0.265625 -0.390625 -0.75 -0.546875q-0.46875 -0.15625 -1.359375 -0.15625l-2.171875 0l0 3.203125zm7.3688354 1.109375l0 -6.78125l1.03125 0l0 1.03125q0.40625 -0.71875 0.734375 -0.9375q0.34375 -0.234375 0.734375 -0.234375q0.578125 0 1.1875 0.359375l-0.390625 1.078125q-0.421875 -0.25 -0.84375 -0.25q-0.375 0 -0.6875 0.234375q-0.296875 0.21875 -0.421875 0.609375q-0.1875 0.625 -0.1875 1.34375l0 3.546875l-1.15625 0zm3.9436646 -3.390625q0 -1.875 1.046875 -2.78125q0.875 -0.75 2.125 -0.75q1.390625 0 2.28125 0.921875q0.890625 0.90625 0.890625 2.515625q0 1.3125 -0.390625 2.0625q-0.390625 0.75 -1.140625 1.171875q-0.75 0.40625 -1.640625 0.40625q-1.421875 0 -2.296875 -0.90625q-0.875 -0.921875 -0.875 -2.640625zm1.171875 0q0 1.3125 0.5625 1.953125q0.578125 0.640625 1.4375 0.640625q0.859375 0 1.421875 -0.640625q0.5625 -0.65625 0.5625 -1.984375q0 -1.265625 -0.578125 -1.90625q-0.5625 -0.640625 -1.40625 -0.640625q-0.859375 0 -1.4375 0.640625q-0.5625 0.640625 -0.5625 1.9375zm7.76474 3.390625l-2.078125 -6.78125l1.1875 0l1.078125 3.921875l0.40625 1.453125q0.03125 -0.109375 0.359375 -1.40625l1.078125 -3.96875l1.171875 0l1.015625 3.9375l0.34375 1.296875l0.375 -1.3125l1.171875 -3.921875l1.109375 0l-2.109375 6.78125l-1.203125 0l-1.078125 -4.0625l-0.25 -1.15625l-1.375 5.21875l-1.203125 0zm7.730194 -2.015625l1.125 -0.1875q0.109375 0.6875 0.53125 1.046875q0.4375 0.359375 1.234375 0.359375q0.78125 0 1.15625 -0.3125q0.390625 -0.328125 0.390625 -0.765625q0 -0.390625 -0.328125 -0.609375q-0.25 -0.15625 -1.1875 -0.390625q-1.25 -0.3125 -1.75 -0.546875q-0.484375 -0.234375 -0.734375 -0.640625q-0.25 -0.421875 -0.25 -0.90625q0 -0.453125 0.203125 -0.84375q0.203125 -0.390625 0.5625 -0.640625q0.28125 -0.203125 0.734375 -0.328125q0.46875 -0.140625 1.0 -0.140625q0.796875 0 1.390625 0.234375q0.609375 0.21875 0.890625 0.609375q0.28125 0.390625 0.390625 1.046875l-1.109375 0.15625q-0.078125 -0.515625 -0.453125 -0.8125q-0.359375 -0.296875 -1.03125 -0.296875q-0.796875 0 -1.140625 0.265625q-0.328125 0.265625 -0.328125 0.609375q0 0.21875 0.140625 0.40625q0.140625 0.1875 0.4375 0.296875q0.171875 0.0625 1.015625 0.296875q1.21875 0.328125 1.703125 0.53125q0.484375 0.203125 0.75 0.609375q0.28125 0.390625 0.28125 0.984375q0 0.5625 -0.34375 1.078125q-0.328125 0.5 -0.96875 0.78125q-0.625 0.28125 -1.421875 0.28125q-1.3125 0 -2.015625 -0.546875q-0.6875 -0.546875 -0.875 -1.625zm11.625 -0.171875l1.1875 0.15625q-0.28125 1.03125 -1.046875 1.609375q-0.75 0.578125 -1.9375 0.578125q-1.484375 0 -2.359375 -0.90625q-0.859375 -0.921875 -0.859375 -2.578125q0 -1.703125 0.875 -2.640625q0.875 -0.953125 2.28125 -0.953125q1.359375 0 2.21875 0.921875q0.859375 0.921875 0.859375 2.59375q0 0.109375 0 0.3125l-5.046875 0q0.0625 1.109375 0.625 1.703125q0.5625 0.59375 1.421875 0.59375q0.625 0 1.0625 -0.328125q0.453125 -0.328125 0.71875 -1.0625zm-3.765625 -1.84375l3.78125 0q-0.078125 -0.859375 -0.4375 -1.28125q-0.546875 -0.671875 -1.421875 -0.671875q-0.796875 0 -1.34375 0.53125q-0.53125 0.53125 -0.578125 1.421875zm12.534546 3.0l0.15625 1.015625q-0.484375 0.109375 -0.859375 0.109375q-0.625 0 -0.96875 -0.203125q-0.34375 -0.203125 -0.484375 -0.515625q-0.140625 -0.328125 -0.140625 -1.359375l0 -3.890625l-0.84375 0l0 -0.90625l0.84375 0l0 -1.671875l1.140625 -0.6875l0 2.359375l1.15625 0l0 0.90625l-1.15625 0l0 3.953125q0 0.5 0.046875 0.640625q0.0625 0.140625 0.203125 0.21875q0.140625 0.078125 0.390625 0.078125q0.203125 0 0.515625 -0.046875zm0.6916809 -2.359375q0 -1.875 1.046875 -2.78125q0.875 -0.75 2.125 -0.75q1.390625 0 2.28125 0.921875q0.890625 0.90625 0.890625 2.515625q0 1.3125 -0.390625 2.0625q-0.390625 0.75 -1.140625 1.171875q-0.75 0.40625 -1.640625 0.40625q-1.421875 0 -2.296875 -0.90625q-0.875 -0.921875 -0.875 -2.640625zm1.171875 0q0 1.3125 0.5625 1.953125q0.578125 0.640625 1.4375 0.640625q0.859375 0 1.421875 -0.640625q0.5625 -0.65625 0.5625 -1.984375q0 -1.265625 -0.578125 -1.90625q-0.5625 -0.640625 -1.40625 -0.640625q-0.859375 0 -1.4375 0.640625q-0.5625 0.640625 -0.5625 1.9375zm11.393921 3.390625l-2.078125 -6.78125l1.1875 0l1.078125 3.921875l0.40625 1.453125q0.03125 -0.109375 0.359375 -1.40625l1.078125 -3.96875l1.171875 0l1.015625 3.9375l0.34375 1.296875l0.375 -1.3125l1.171875 -3.921875l1.109375 0l-2.109375 6.78125l-1.203125 0l-1.078125 -4.0625l-0.25 -1.15625l-1.375 5.21875l-1.203125 0zm12.823944 -2.1875l1.1875 0.15625q-0.28125 1.03125 -1.046875 1.609375q-0.75 0.578125 -1.9375 0.578125q-1.484375 0 -2.359375 -0.90625q-0.859375 -0.921875 -0.859375 -2.578125q0 -1.703125 0.875 -2.640625q0.875 -0.953125 2.28125 -0.953125q1.359375 0 2.21875 0.921875q0.859375 0.921875 0.859375 2.59375q0 0.109375 0 0.3125l-5.046875 0q0.0625 1.109375 0.625 1.703125q0.5625 0.59375 1.421875 0.59375q0.625 0 1.0625 -0.328125q0.453125 -0.328125 0.71875 -1.0625zm-3.765625 -1.84375l3.78125 0q-0.078125 -0.859375 -0.4375 -1.28125q-0.546875 -0.671875 -1.421875 -0.671875q-0.796875 0 -1.34375 0.53125q-0.53125 0.53125 -0.578125 1.421875zm7.45224 4.03125l-1.0625 0l0 -9.34375l1.140625 0l0 3.328125q0.734375 -0.90625 1.859375 -0.90625q0.625 0 1.171875 0.25q0.5625 0.25 0.921875 0.703125q0.375 0.453125 0.578125 1.109375q0.203125 0.640625 0.203125 1.375q0 1.734375 -0.875 2.6875q-0.859375 0.953125 -2.0625 0.953125q-1.1875 0 -1.875 -1.0l0 0.84375zm-0.015625 -3.4375q0 1.21875 0.328125 1.765625q0.546875 0.875 1.46875 0.875q0.75 0 1.296875 -0.640625q0.5625 -0.65625 0.5625 -1.953125q0 -1.328125 -0.53125 -1.953125q-0.53125 -0.640625 -1.28125 -0.640625q-0.75 0 -1.296875 0.65625q-0.546875 0.65625 -0.546875 1.890625zm7.467865 3.4375l-2.078125 -6.78125l1.1875 0l1.078125 3.921875l0.40625 1.453125q0.03125 -0.109375 0.359375 -1.40625l1.078125 -3.96875l1.171875 0l1.015625 3.9375l0.34375 1.296875l0.375 -1.3125l1.171875 -3.921875l1.109375 0l-2.109375 6.78125l-1.203125 0l-1.078125 -4.0625l-0.25 -1.15625l-1.375 5.21875l-1.203125 0zm12.605194 -0.828125q-0.640625 0.53125 -1.234375 0.765625q-0.578125 0.21875 -1.265625 0.21875q-1.109375 0 -1.71875 -0.546875q-0.59375 -0.546875 -0.59375 -1.390625q0 -0.5 0.21875 -0.90625q0.234375 -0.421875 0.59375 -0.671875q0.375 -0.25 0.84375 -0.375q0.328125 -0.09375 1.015625 -0.171875q1.390625 -0.15625 2.046875 -0.390625q0 -0.234375 0 -0.296875q0 -0.703125 -0.328125 -1.0q-0.4375 -0.375 -1.296875 -0.375q-0.8125 0 -1.203125 0.28125q-0.375 0.28125 -0.5625 1.0l-1.125 -0.15625q0.15625 -0.71875 0.5 -1.15625q0.359375 -0.453125 1.015625 -0.6875q0.65625 -0.234375 1.53125 -0.234375q0.875 0 1.40625 0.203125q0.546875 0.203125 0.796875 0.515625q0.265625 0.296875 0.359375 0.78125q0.0625 0.28125 0.0625 1.046875l0 1.53125q0 1.609375 0.078125 2.03125q0.078125 0.421875 0.28125 0.8125l-1.1875 0q-0.1875 -0.359375 -0.234375 -0.828125zm-0.09375 -2.578125q-0.625 0.265625 -1.875 0.4375q-0.703125 0.109375 -1.0 0.234375q-0.296875 0.125 -0.453125 0.375q-0.15625 0.234375 -0.15625 0.546875q0 0.453125 0.34375 0.765625q0.34375 0.296875 1.015625 0.296875q0.65625 0 1.171875 -0.28125q0.53125 -0.296875 0.765625 -0.796875q0.1875 -0.390625 0.1875 -1.15625l0 -0.421875zm2.92099 3.40625l0 -6.78125l1.0312347 0l0 1.03125q0.40625 -0.71875 0.734375 -0.9375q0.34375 -0.234375 0.734375 -0.234375q0.578125 0 1.1875 0.359375l-0.390625 1.078125q-0.421875 -0.25 -0.84375 -0.25q-0.375 0 -0.6875 0.234375q-0.296875 0.21875 -0.421875 0.609375q-0.1875 0.625 -0.1875 1.34375l0 3.546875l-1.1562347 0zm4.3655243 2.59375l0 -9.375l1.046875 0l0 0.890625q0.375 -0.515625 0.828125 -0.765625q0.46875 -0.265625 1.140625 -0.265625q0.859375 0 1.515625 0.453125q0.671875 0.4375 1.0 1.25q0.34375 0.8125 0.34375 1.78125q0 1.046875 -0.375 1.875q-0.359375 0.828125 -1.078125 1.28125q-0.703125 0.4375 -1.5 0.4375q-0.5625 0 -1.03125 -0.234375q-0.453125 -0.25 -0.734375 -0.625l0 3.296875l-1.15625 0zm1.046875 -5.9375q0 1.296875 0.515625 1.921875q0.53125 0.625 1.296875 0.625q0.765625 0 1.296875 -0.640625q0.546875 -0.640625 0.546875 -2.0q0 -1.296875 -0.53125 -1.9375q-0.53125 -0.65625 -1.265625 -0.65625q-0.734375 0 -1.296875 0.6875q-0.5625 0.6875 -0.5625 2.0zm6.54599 3.34375l0 -1.3125l1.3125 0l0 1.3125l-1.3125 0zm7.738556 0l0 -1.0q-0.78125 1.15625 -2.140625 1.15625q-0.609375 0 -1.125 -0.234375q-0.515625 -0.234375 -0.78125 -0.578125q-0.25 -0.34375 -0.34375 -0.84375q-0.078125 -0.34375 -0.078125 -1.078125l0 -4.203125l1.15625 0l0 3.765625q0 0.890625 0.0625 1.203125q0.109375 0.453125 0.453125 0.71875q0.359375 0.265625 0.875 0.265625q0.515625 0 0.96875 -0.265625q0.453125 -0.265625 0.640625 -0.71875q0.1875 -0.46875 0.1875 -1.328125l0 -3.640625l1.15625 0l0 6.78125l-1.03125 0zm2.842865 0l0 -9.34375l1.140625 0l0 5.328125l2.71875 -2.765625l1.484375 0l-2.59375 2.515625l2.859375 4.265625l-1.421875 0l-2.234375 -3.46875l-0.8125 0.78125l0 2.6875l-1.140625 0z" fill-rule="nonzero"/><path fill="#000000" d="m143.5691 208.32558l0 -1.09375l3.953125 0l0 3.46875q-0.90625 0.71875 -1.875 1.09375q-0.96875 0.359375 -2.0 0.359375q-1.375 0 -2.5 -0.578125q-1.125 -0.59375 -1.703125 -1.703125q-0.578125 -1.125 -0.578125 -2.5q0 -1.375 0.578125 -2.546875q0.578125 -1.1875 1.640625 -1.765625q1.078125 -0.578125 2.46875 -0.578125q1.015625 0 1.828125 0.328125q0.828125 0.328125 1.296875 0.921875q0.46875 0.59375 0.703125 1.53125l-1.109375 0.3125q-0.21875 -0.71875 -0.53125 -1.125q-0.3125 -0.40625 -0.890625 -0.65625q-0.578125 -0.25 -1.28125 -0.25q-0.859375 0 -1.484375 0.265625q-0.609375 0.25 -1.0 0.671875q-0.375 0.421875 -0.578125 0.921875q-0.359375 0.875 -0.359375 1.890625q0 1.25 0.421875 2.09375q0.4375 0.84375 1.265625 1.25q0.828125 0.40625 1.75 0.40625q0.796875 0 1.5625 -0.3125q0.765625 -0.3125 1.15625 -0.65625l0 -1.75l-2.734375 0zm10.269806 1.484375l1.1875 0.15625q-0.28125 1.03125 -1.046875 1.609375q-0.75 0.578125 -1.9375 0.578125q-1.484375 0 -2.359375 -0.90625q-0.859375 -0.921875 -0.859375 -2.578125q0 -1.703125 0.875 -2.640625q0.875 -0.953125 2.28125 -0.953125q1.359375 0 2.21875 0.921875q0.859375 0.921875 0.859375 2.59375q0 0.109375 0 0.3125l-5.046875 0q0.0625 1.109375 0.625 1.703125q0.5625 0.59375 1.421875 0.59375q0.625 0 1.0625 -0.328125q0.453125 -0.328125 0.71875 -1.0625zm-3.765625 -1.84375l3.78125 0q-0.078125 -0.859375 -0.4375 -1.28125q-0.546875 -0.671875 -1.421875 -0.671875q-0.796875 0 -1.34375 0.53125q-0.53125 0.53125 -0.578125 1.421875zm8.905365 3.0l0.15625 1.015625q-0.484375 0.109375 -0.859375 0.109375q-0.625 0 -0.96875 -0.203125q-0.34375 -0.203125 -0.484375 -0.515625q-0.140625 -0.328125 -0.140625 -1.359375l0 -3.890625l-0.84375 0l0 -0.90625l0.84375 0l0 -1.671875l1.140625 -0.6875l0 2.359375l1.15625 0l0 0.90625l-1.15625 0l0 3.953125q0 0.5 0.046875 0.640625q0.0625 0.140625 0.203125 0.21875q0.140625 0.078125 0.390625 0.078125q0.203125 0 0.515625 -0.046875zm5.023987 1.03125l0 -5.875l-1.015625 0l0 -0.90625l1.015625 0l0 -0.71875q0 -0.671875 0.109375 -1.015625q0.171875 -0.4375 0.59375 -0.71875q0.421875 -0.28125 1.171875 -0.28125q0.484375 0 1.0625 0.125l-0.171875 1.0q-0.359375 -0.0625 -0.671875 -0.0625q-0.53125 0 -0.75 0.21875q-0.203125 0.21875 -0.203125 0.828125l0 0.625l1.3125 0l0 0.90625l-1.3125 0l0 5.875l-1.140625 0zm3.332306 0l0 -6.78125l1.03125 0l0 1.03125q0.40625 -0.71875 0.734375 -0.9375q0.34375 -0.234375 0.734375 -0.234375q0.578125 0 1.1875 0.359375l-0.390625 1.078125q-0.421875 -0.25 -0.84375 -0.25q-0.375 0 -0.6875 0.234375q-0.296875 0.21875 -0.421875 0.609375q-0.1875 0.625 -0.1875 1.34375l0 3.546875l-1.15625 0zm3.9436646 -3.390625q0 -1.875 1.046875 -2.78125q0.875 -0.75 2.125 -0.75q1.390625 0 2.28125 0.921875q0.890625 0.90625 0.890625 2.515625q0 1.3125 -0.390625 2.0625q-0.390625 0.75 -1.140625 1.171875q-0.75 0.40625 -1.640625 0.40625q-1.421875 0 -2.296875 -0.90625q-0.875 -0.921875 -0.875 -2.640625zm1.171875 0q0 1.3125 0.5625 1.953125q0.578125 0.640625 1.4375 0.640625q0.859375 0 1.421875 -0.640625q0.5625 -0.65625 0.5625 -1.984375q0 -1.265625 -0.578125 -1.90625q-0.5625 -0.640625 -1.40625 -0.640625q-0.859375 0 -1.4375 0.640625q-0.5625 0.640625 -0.5625 1.9375zm6.51474 3.390625l0 -6.78125l1.03125 0l0 0.96875q0.75 -1.109375 2.15625 -1.109375q0.609375 0 1.125 0.21875q0.515625 0.21875 0.765625 0.578125q0.265625 0.359375 0.359375 0.84375q0.0625 0.3125 0.0625 1.109375l0 4.171875l-1.140625 0l0 -4.125q0 -0.703125 -0.140625 -1.046875q-0.125 -0.34375 -0.46875 -0.546875q-0.34375 -0.21875 -0.796875 -0.21875q-0.734375 0 -1.265625 0.46875q-0.53125 0.46875 -0.53125 1.765625l0 3.703125l-1.15625 0zm9.780365 -1.03125l0.15625 1.015625q-0.484375 0.109375 -0.859375 0.109375q-0.625 0 -0.96875 -0.203125q-0.34375 -0.203125 -0.484375 -0.515625q-0.140625 -0.328125 -0.140625 -1.359375l0 -3.890625l-0.84375 0l0 -0.90625l0.84375 0l0 -1.671875l1.140625 -0.6875l0 2.359375l1.15625 0l0 0.90625l-1.15625 0l0 3.953125q0 0.5 0.046875 0.640625q0.0625 0.140625 0.203125 0.21875q0.140625 0.078125 0.390625 0.078125q0.203125 0 0.515625 -0.046875zm5.754181 -1.15625l1.1875 0.15625q-0.28125 1.03125 -1.046875 1.609375q-0.75 0.578125 -1.9375 0.578125q-1.484375 0 -2.359375 -0.90625q-0.859375 -0.921875 -0.859375 -2.578125q0 -1.703125 0.875 -2.640625q0.875 -0.953125 2.28125 -0.953125q1.359375 0 2.21875 0.921875q0.859375 0.921875 0.859375 2.59375q0 0.109375 0 0.3125l-5.046875 0q0.0625 1.109375 0.625 1.703125q0.5625 0.59375 1.421875 0.59375q0.625 0 1.0625 -0.328125q0.453125 -0.328125 0.71875 -1.0625zm-3.765625 -1.84375l3.78125 0q-0.078125 -0.859375 -0.4375 -1.28125q-0.546875 -0.671875 -1.421875 -0.671875q-0.796875 0 -1.34375 0.53125q-0.53125 0.53125 -0.578125 1.421875zm6.38974 4.03125l0 -6.78125l1.03125 0l0 0.96875q0.75 -1.109375 2.15625 -1.109375q0.609375 0 1.125 0.21875q0.515625 0.21875 0.765625 0.578125q0.265625 0.359375 0.359375 0.84375q0.0625 0.3125 0.0625 1.109375l0 4.171875l-1.140625 0l0 -4.125q0 -0.703125 -0.140625 -1.046875q-0.125 -0.34375 -0.46875 -0.546875q-0.34375 -0.21875 -0.796875 -0.21875q-0.734375 0 -1.265625 0.46875q-0.53125 0.46875 -0.53125 1.765625l0 3.703125l-1.15625 0zm11.655365 0l0 -0.859375q-0.640625 1.015625 -1.890625 1.015625q-0.8125 0 -1.5 -0.4375q-0.671875 -0.453125 -1.046875 -1.25q-0.359375 -0.8125 -0.359375 -1.84375q0 -1.015625 0.328125 -1.84375q0.34375 -0.828125 1.015625 -1.265625q0.671875 -0.4375 1.515625 -0.4375q0.609375 0 1.078125 0.265625q0.484375 0.25 0.78125 0.65625l0 -3.34375l1.15625 0l0 9.34375l-1.078125 0zm-3.625 -3.375q0 1.296875 0.546875 1.9375q0.546875 0.640625 1.296875 0.640625q0.75 0 1.28125 -0.609375q0.53125 -0.609375 0.53125 -1.875q0 -1.390625 -0.546875 -2.03125q-0.53125 -0.65625 -1.3125 -0.65625q-0.765625 0 -1.28125 0.625q-0.515625 0.625 -0.515625 1.96875zm14.550171 2.546875q-0.640625 0.53125 -1.234375 0.765625q-0.578125 0.21875 -1.265625 0.21875q-1.109375 0 -1.71875 -0.546875q-0.59375 -0.546875 -0.59375 -1.390625q0 -0.5 0.21875 -0.90625q0.234375 -0.421875 0.59375 -0.671875q0.375 -0.25 0.84375 -0.375q0.328125 -0.09375 1.015625 -0.171875q1.390625 -0.15625 2.046875 -0.390625q0 -0.234375 0 -0.296875q0 -0.703125 -0.328125 -1.0q-0.4375 -0.375 -1.296875 -0.375q-0.8125 0 -1.203125 0.28125q-0.375 0.28125 -0.5625 1.0l-1.125 -0.15625q0.15625 -0.71875 0.5 -1.15625q0.359375 -0.453125 1.015625 -0.6875q0.65625 -0.234375 1.53125 -0.234375q0.875 0 1.40625 0.203125q0.546875 0.203125 0.796875 0.515625q0.265625 0.296875 0.359375 0.78125q0.0625 0.28125 0.0625 1.046875l0 1.53125q0 1.609375 0.078125 2.03125q0.078125 0.421875 0.28125 0.8125l-1.1875 0q-0.1875 -0.359375 -0.234375 -0.828125zm-0.09375 -2.578125q-0.625 0.265625 -1.875 0.4375q-0.703125 0.109375 -1.0 0.234375q-0.296875 0.125 -0.453125 0.375q-0.15625 0.234375 -0.15625 0.546875q0 0.453125 0.34375 0.765625q0.34375 0.296875 1.015625 0.296875q0.65625 0 1.171875 -0.28125q0.53125 -0.296875 0.765625 -0.796875q0.1875 -0.390625 0.1875 -1.15625l0 -0.421875zm2.936615 6.0l0 -9.375l1.046875 0l0 0.890625q0.375 -0.515625 0.828125 -0.765625q0.46875 -0.265625 1.140625 -0.265625q0.859375 0 1.515625 0.453125q0.671875 0.4375 1.0 1.25q0.34375 0.8125 0.34375 1.78125q0 1.046875 -0.375 1.875q-0.359375 0.828125 -1.078125 1.28125q-0.703125 0.4375 -1.5 0.4375q-0.5625 0 -1.03125 -0.234375q-0.453125 -0.25 -0.734375 -0.625l0 3.296875l-1.15625 0zm1.046875 -5.9375q0 1.296875 0.515625 1.921875q0.53125 0.625 1.296875 0.625q0.765625 0 1.296875 -0.640625q0.546875 -0.640625 0.546875 -2.0q0 -1.296875 -0.53125 -1.9375q-0.53125 -0.65625 -1.265625 -0.65625q-0.734375 0 -1.296875 0.6875q-0.5625 0.6875 -0.5625 2.0zm6.217865 5.9375l0 -9.375l1.046875 0l0 0.890625q0.375 -0.515625 0.828125 -0.765625q0.46875 -0.265625 1.140625 -0.265625q0.859375 0 1.515625 0.453125q0.671875 0.4375 1.0 1.25q0.34375 0.8125 0.34375 1.78125q0 1.046875 -0.375 1.875q-0.359375 0.828125 -1.078125 1.28125q-0.703125 0.4375 -1.5 0.4375q-0.5625 0 -1.03125 -0.234375q-0.453125 -0.25 -0.734375 -0.625l0 3.296875l-1.15625 0zm1.046875 -5.9375q0 1.296875 0.515625 1.921875q0.53125 0.625 1.296875 0.625q0.765625 0 1.296875 -0.640625q0.546875 -0.640625 0.546875 -2.0q0 -1.296875 -0.53125 -1.9375q-0.53125 -0.65625 -1.265625 -0.65625q-0.734375 0 -1.296875 0.6875q-0.5625 0.6875 -0.5625 2.0zm6.186615 3.34375l0 -9.34375l1.15625 0l0 9.34375l-1.15625 0zm2.948944 -8.03125l0 -1.3125l1.140625 0l0 1.3125l-1.140625 0zm0 8.03125l0 -6.78125l1.140625 0l0 6.78125l-1.140625 0zm7.308319 -2.484375l1.125 0.15625q-0.1875 1.15625 -0.953125 1.828125q-0.75 0.65625 -1.859375 0.65625q-1.390625 0 -2.234375 -0.90625q-0.84375 -0.921875 -0.84375 -2.609375q0 -1.09375 0.359375 -1.921875q0.359375 -0.828125 1.09375 -1.234375q0.75 -0.40625 1.625 -0.40625q1.109375 0 1.8125 0.5625q0.703125 0.546875 0.890625 1.578125l-1.109375 0.171875q-0.15625 -0.6875 -0.5625 -1.03125q-0.40625 -0.34375 -0.984375 -0.34375q-0.859375 0 -1.40625 0.625q-0.546875 0.625 -0.546875 1.96875q0 1.359375 0.515625 1.984375q0.53125 0.609375 1.375 0.609375q0.671875 0 1.125 -0.40625q0.453125 -0.421875 0.578125 -1.28125zm6.53125 1.65625q-0.640625 0.53125 -1.234375 0.765625q-0.578125 0.21875 -1.265625 0.21875q-1.109375 0 -1.71875 -0.546875q-0.59375 -0.546875 -0.59375 -1.390625q0 -0.5 0.21875 -0.90625q0.234375 -0.421875 0.59375 -0.671875q0.375 -0.25 0.84375 -0.375q0.328125 -0.09375 1.015625 -0.171875q1.390625 -0.15625 2.046875 -0.390625q0 -0.234375 0 -0.296875q0 -0.703125 -0.328125 -1.0q-0.4375 -0.375 -1.296875 -0.375q-0.8125 0 -1.203125 0.28125q-0.375 0.28125 -0.5625 1.0l-1.125 -0.15625q0.15625 -0.71875 0.5 -1.15625q0.359375 -0.453125 1.015625 -0.6875q0.65625 -0.234375 1.53125 -0.234375q0.875 0 1.40625 0.203125q0.546875 0.203125 0.796875 0.515625q0.265625 0.296875 0.359375 0.78125q0.0625 0.28125 0.0625 1.046875l0 1.53125q0 1.609375 0.078125 2.03125q0.078125 0.421875 0.28125 0.8125l-1.1875 0q-0.1875 -0.359375 -0.234375 -0.828125zm-0.09375 -2.578125q-0.625 0.265625 -1.875 0.4375q-0.703125 0.109375 -1.0 0.234375q-0.296875 0.125 -0.453125 0.375q-0.15625 0.234375 -0.15625 0.546875q0 0.453125 0.34375 0.765625q0.34375 0.296875 1.015625 0.296875q0.65625 0 1.171875 -0.28125q0.53125 -0.296875 0.765625 -0.796875q0.1875 -0.390625 0.1875 -1.15625l0 -0.421875zm5.4522247 2.375l0.15625 1.015625q-0.484375 0.109375 -0.859375 0.109375q-0.625 0 -0.96875 -0.203125q-0.34375 -0.203125 -0.484375 -0.515625q-0.140625 -0.328125 -0.140625 -1.359375l0 -3.890625l-0.84375 0l0 -0.90625l0.84375 0l0 -1.671875l1.140625 -0.6875l0 2.359375l1.15625 0l0 0.90625l-1.15625 0l0 3.953125q0 0.5 0.046875 0.640625q0.0625 0.140625 0.203125 0.21875q0.140625 0.078125 0.390625 0.078125q0.203125 0 0.515625 -0.046875zm1.1291809 -7.0l0 -1.3125l1.140625 0l0 1.3125l-1.140625 0zm0 8.03125l0 -6.78125l1.140625 0l0 6.78125l-1.140625 0zm2.464569 -3.390625q0 -1.875 1.046875 -2.78125q0.875 -0.75 2.125 -0.75q1.390625 0 2.28125 0.921875q0.890625 0.90625 0.890625 2.515625q0 1.3125 -0.390625 2.0625q-0.390625 0.75 -1.140625 1.171875q-0.75 0.40625 -1.640625 0.40625q-1.421875 0 -2.296875 -0.90625q-0.875 -0.921875 -0.875 -2.640625zm1.171875 0q0 1.3125 0.5625 1.953125q0.578125 0.640625 1.4375 0.640625q0.859375 0 1.421875 -0.640625q0.5625 -0.65625 0.5625 -1.984375q0 -1.265625 -0.578125 -1.90625q-0.5625 -0.640625 -1.40625 -0.640625q-0.859375 0 -1.4375 0.640625q-0.5625 0.640625 -0.5625 1.9375zm6.51474 3.390625l0 -6.78125l1.03125 0l0 0.96875q0.75 -1.109375 2.15625 -1.109375q0.609375 0 1.125 0.21875q0.515625 0.21875 0.765625 0.578125q0.265625 0.359375 0.359375 0.84375q0.0625 0.3125 0.0625 1.109375l0 4.171875l-1.140625 0l0 -4.125q0 -0.703125 -0.140625 -1.046875q-0.125 -0.34375 -0.46875 -0.546875q-0.34375 -0.21875 -0.796875 -0.21875q-0.734375 0 -1.265625 0.46875q-0.53125 0.46875 -0.53125 1.765625l0 3.703125l-1.15625 0z" fill-rule="nonzero"/><path fill="#000000" fill-opacity="0.0" d="m226.48557 400.46457l259.3071 -37.322845" fill-rule="evenodd"/><path stroke="#000000" stroke-width="1.0" stroke-linejoin="round" stroke-linecap="butt" d="m232.42436 399.60977l247.42949 -35.61325" fill-rule="evenodd"/><path fill="#000000" stroke="#000000" stroke-width="1.0" stroke-linecap="butt" d="m232.18906 397.97488l-4.2565002 2.2814026l4.727127 0.9883728z" fill-rule="evenodd"/><path fill="#000000" stroke="#000000" stroke-width="1.0" stroke-linecap="butt" d="m480.08917 365.6314l4.2565002 -2.2814026l-4.7271423 -0.9883728z" fill-rule="evenodd"/><path fill="#000000" fill-opacity="0.0" d="m195.93701 283.0684l160.34647 0l0 66.01578l-160.34647 0z" fill-rule="evenodd"/><path fill="#000000" d="m211.51514 302.24863l0 1.109375l-6.1875 0q-0.015625 -0.421875 0.140625 -0.796875q0.234375 -0.625 0.75 -1.234375q0.53125 -0.625 1.5 -1.421875q1.53125 -1.25 2.0625 -1.984375q0.546875 -0.734375 0.546875 -1.375q0 -0.6875 -0.5 -1.15625q-0.484375 -0.46875 -1.265625 -0.46875q-0.828125 0 -1.328125 0.5q-0.5 0.5 -0.5 1.375l-1.1875 -0.125q0.125 -1.3125 0.90625 -2.0q0.796875 -0.703125 2.125 -0.703125q1.359375 0 2.140625 0.75q0.78125 0.75 0.78125 1.84375q0 0.5625 -0.234375 1.109375q-0.21875 0.546875 -0.765625 1.140625q-0.53125 0.59375 -1.765625 1.640625q-1.03125 0.875 -1.328125 1.1875q-0.28125 0.296875 -0.484375 0.609375l4.59375 0zm1.874115 1.109375l0 -1.3125l1.3125 0l0 1.3125l-1.3125 0zm7.039612 0l0 -9.34375l1.859375 0l2.21875 6.609375q0.296875 0.921875 0.4375 1.390625q0.171875 -0.515625 0.5 -1.5l2.25 -6.5l1.65625 0l0 9.34375l-1.1875 0l0 -7.828125l-2.71875 7.828125l-1.125 0l-2.703125 -7.953125l0 7.953125l-1.1875 0zm15.193665 -0.828125q-0.640625 0.53125 -1.234375 0.765625q-0.578125 0.21875 -1.265625 0.21875q-1.109375 0 -1.71875 -0.546875q-0.59375 -0.546875 -0.59375 -1.390625q0 -0.5 0.21875 -0.90625q0.234375 -0.421875 0.59375 -0.671875q0.375 -0.25 0.84375 -0.375q0.328125 -0.09375 1.015625 -0.171875q1.390625 -0.15625 2.046875 -0.390625q0 -0.234375 0 -0.296875q0 -0.703125 -0.328125 -1.0q-0.4375 -0.375 -1.296875 -0.375q-0.8125 0 -1.203125 0.28125q-0.375 0.28125 -0.5625 1.0l-1.125 -0.15625q0.15625 -0.71875 0.5 -1.15625q0.359375 -0.453125 1.015625 -0.6875q0.65625 -0.234375 1.53125 -0.234375q0.875 0 1.40625 0.203125q0.546875 0.203125 0.796875 0.515625q0.265625 0.296875 0.359375 0.78125q0.0625 0.28125 0.0625 1.046875l0 1.53125q0 1.609375 0.078125 2.03125q0.078125 0.421875 0.28125 0.8125l-1.1875 0q-0.1875 -0.359375 -0.234375 -0.828125zm-0.09375 -2.578125q-0.625 0.265625 -1.875 0.4375q-0.703125 0.109375 -1.0 0.234375q-0.296875 0.125 -0.453125 0.375q-0.15625 0.234375 -0.15625 0.546875q0 0.453125 0.34375 0.765625q0.34375 0.296875 1.015625 0.296875q0.65625 0 1.171875 -0.28125q0.53125 -0.296875 0.765625 -0.796875q0.1875 -0.390625 0.1875 -1.15625l0 -0.421875zm2.95224 3.40625l0 -9.34375l1.140625 0l0 5.328125l2.71875 -2.765625l1.484375 0l-2.59375 2.515625l2.859375 4.265625l-1.421875 0l-2.234375 -3.46875l-0.8125 0.78125l0 2.6875l-1.140625 0zm11.15625 -2.1875l1.1875 0.15625q-0.28125 1.03125 -1.046875 1.609375q-0.75 0.578125 -1.9375 0.578125q-1.484375 0 -2.359375 -0.90625q-0.859375 -0.921875 -0.859375 -2.578125q0 -1.703125 0.875 -2.640625q0.875 -0.953125 2.28125 -0.953125q1.359375 0 2.21875 0.921875q0.859375 0.921875 0.859375 2.59375q0 0.109375 0 0.3125l-5.046875 0q0.0625 1.109375 0.625 1.703125q0.5625 0.59375 1.421875 0.59375q0.625 0 1.0625 -0.328125q0.453125 -0.328125 0.71875 -1.0625zm-3.765625 -1.84375l3.78125 0q-0.078125 -0.859375 -0.4375 -1.28125q-0.546875 -0.671875 -1.421875 -0.671875q-0.796875 0 -1.34375 0.53125q-0.53125 0.53125 -0.578125 1.421875zm10.003296 4.03125l0 -6.78125l1.03125 0l0 1.03125q0.40625 -0.71875 0.734375 -0.9375q0.34375 -0.234375 0.734375 -0.234375q0.578125 0 1.1875 0.359375l-0.390625 1.078125q-0.421875 -0.25 -0.84375 -0.25q-0.375 0 -0.6875 0.234375q-0.296875 0.21875 -0.421875 0.609375q-0.1875 0.625 -0.1875 1.34375l0 3.546875l-1.15625 0zm9.006165 -2.1875l1.1875 0.15625q-0.28125 1.03125 -1.046875 1.609375q-0.75 0.578125 -1.9375 0.578125q-1.484375 0 -2.359375 -0.90625q-0.859375 -0.921875 -0.859375 -2.578125q0 -1.703125 0.875 -2.640625q0.875 -0.953125 2.28125 -0.953125q1.359375 0 2.21875 0.921875q0.859375 0.921875 0.859375 2.59375q0 0.109375 0 0.3125l-5.046875 0q0.0625 1.109375 0.625 1.703125q0.5625 0.59375 1.421875 0.59375q0.625 0 1.0625 -0.328125q0.453125 -0.328125 0.71875 -1.0625zm-3.765625 -1.84375l3.78125 0q-0.078125 -0.859375 -0.4375 -1.28125q-0.546875 -0.671875 -1.421875 -0.671875q-0.796875 0 -1.34375 0.53125q-0.53125 0.53125 -0.578125 1.421875zm10.70224 6.625l0 -3.3125q-0.265625 0.375 -0.75 0.625q-0.46875 0.25 -1.015625 0.25q-1.203125 0 -2.078125 -0.953125q-0.875 -0.96875 -0.875 -2.65625q0 -1.015625 0.359375 -1.828125q0.359375 -0.8125 1.03125 -1.21875q0.671875 -0.421875 1.46875 -0.421875q1.265625 0 1.984375 1.046875l0 -0.90625l1.03125 0l0 9.375l-1.15625 0zm-3.53125 -6.0q0 1.3125 0.546875 1.96875q0.546875 0.640625 1.3125 0.640625q0.734375 0 1.265625 -0.609375q0.53125 -0.625 0.53125 -1.890625q0 -1.359375 -0.5625 -2.03125q-0.5625 -0.6875 -1.3125 -0.6875q-0.75 0 -1.265625 0.640625q-0.515625 0.625 -0.515625 1.96875zm10.92099 3.40625l0 -1.0q-0.78125 1.15625 -2.140625 1.15625q-0.609375 0 -1.125 -0.234375q-0.515625 -0.234375 -0.78125 -0.578125q-0.25 -0.34375 -0.34375 -0.84375q-0.078125 -0.34375 -0.078125 -1.078125l0 -4.203125l1.15625 0l0 3.765625q0 0.890625 0.0625 1.203125q0.109375 0.453125 0.453125 0.71875q0.359375 0.265625 0.875 0.265625q0.515625 0 0.96875 -0.265625q0.453125 -0.265625 0.640625 -0.71875q0.1875 -0.46875 0.1875 -1.328125l0 -3.640625l1.15625 0l0 6.78125l-1.03125 0zm7.467865 -2.1875l1.1875 0.15625q-0.28125 1.03125 -1.046875 1.609375q-0.75 0.578125 -1.9375 0.578125q-1.484375 0 -2.359375 -0.90625q-0.859375 -0.921875 -0.859375 -2.578125q0 -1.703125 0.875 -2.640625q0.875 -0.953125 2.28125 -0.953125q1.359375 0 2.21875 0.921875q0.859375 0.921875 0.859375 2.59375q0 0.109375 0 0.3125l-5.046875 0q0.0625 1.109375 0.625 1.703125q0.5625 0.59375 1.421875 0.59375q0.625 0 1.0625 -0.328125q0.453125 -0.328125 0.71875 -1.0625zm-3.765625 -1.84375l3.78125 0q-0.078125 -0.859375 -0.4375 -1.28125q-0.546875 -0.671875 -1.421875 -0.671875q-0.796875 0 -1.34375 0.53125q-0.53125 0.53125 -0.578125 1.421875zm5.936615 2.015625l1.125 -0.1875q0.109375 0.6875 0.53125 1.046875q0.4375 0.359375 1.234375 0.359375q0.78125 0 1.15625 -0.3125q0.390625 -0.328125 0.390625 -0.765625q0 -0.390625 -0.328125 -0.609375q-0.25 -0.15625 -1.1875 -0.390625q-1.25 -0.3125 -1.75 -0.546875q-0.484375 -0.234375 -0.734375 -0.640625q-0.25 -0.421875 -0.25 -0.90625q0 -0.453125 0.203125 -0.84375q0.203125 -0.390625 0.5625 -0.640625q0.28125 -0.203125 0.734375 -0.328125q0.46875 -0.140625 1.0 -0.140625q0.796875 0 1.390625 0.234375q0.609375 0.21875 0.890625 0.609375q0.28125 0.390625 0.390625 1.046875l-1.109375 0.15625q-0.078125 -0.515625 -0.453125 -0.8125q-0.359375 -0.296875 -1.03125 -0.296875q-0.796875 0 -1.140625 0.265625q-0.328125 0.265625 -0.328125 0.609375q0 0.21875 0.140625 0.40625q0.140625 0.1875 0.4375 0.296875q0.171875 0.0625 1.015625 0.296875q1.21875 0.328125 1.703125 0.53125q0.484375 0.203125 0.75 0.609375q0.28125 0.390625 0.28125 0.984375q0 0.5625 -0.34375 1.078125q-0.328125 0.5 -0.96875 0.78125q-0.625 0.28125 -1.421875 0.28125q-1.3125 0 -2.015625 -0.546875q-0.6875 -0.546875 -0.875 -1.625zm9.5 0.984375l0.15625 1.015625q-0.484375 0.109375 -0.859375 0.109375q-0.625 0 -0.96875 -0.203125q-0.34375 -0.203125 -0.484375 -0.515625q-0.140625 -0.328125 -0.140625 -1.359375l0 -3.890625l-0.84375 0l0 -0.90625l0.84375 0l0 -1.671875l1.140625 -0.6875l0 2.359375l1.15625 0l0 0.90625l-1.15625 0l0 3.953125q0 0.5 0.046875 0.640625q0.0625 0.140625 0.203125 0.21875q0.140625 0.078125 0.390625 0.078125q0.203125 0 0.515625 -0.046875zm0.6604309 -0.984375l1.125 -0.1875q0.109375 0.6875 0.53125 1.046875q0.4375 0.359375 1.234375 0.359375q0.78125 0 1.15625 -0.3125q0.390625 -0.328125 0.390625 -0.765625q0 -0.390625 -0.328125 -0.609375q-0.25 -0.15625 -1.1875 -0.390625q-1.25 -0.3125 -1.75 -0.546875q-0.484375 -0.234375 -0.734375 -0.640625q-0.25 -0.421875 -0.25 -0.90625q0 -0.453125 0.203125 -0.84375q0.203125 -0.390625 0.5625 -0.640625q0.28125 -0.203125 0.734375 -0.328125q0.46875 -0.140625 1.0 -0.140625q0.796875 0 1.390625 0.234375q0.609375 0.21875 0.890625 0.609375q0.28125 0.390625 0.390625 1.046875l-1.109375 0.15625q-0.078125 -0.515625 -0.453125 -0.8125q-0.359375 -0.296875 -1.03125 -0.296875q-0.796875 0 -1.140625 0.265625q-0.328125 0.265625 -0.328125 0.609375q0 0.21875 0.140625 0.40625q0.140625 0.1875 0.4375 0.296875q0.171875 0.0625 1.015625 0.296875q1.21875 0.328125 1.703125 0.53125q0.484375 0.203125 0.75 0.609375q0.28125 0.390625 0.28125 0.984375q0 0.5625 -0.34375 1.078125q-0.328125 0.5 -0.96875 0.78125q-0.625 0.28125 -1.421875 0.28125q-1.3125 0 -2.015625 -0.546875q-0.6875 -0.546875 -0.875 -1.625zm13.129181 0.984375l0.15625 1.015625q-0.484375 0.109375 -0.859375 0.109375q-0.625 0 -0.96875 -0.203125q-0.34375 -0.203125 -0.484375 -0.515625q-0.140625 -0.328125 -0.140625 -1.359375l0 -3.890625l-0.84375 0l0 -0.90625l0.84375 0l0 -1.671875l1.140625 -0.6875l0 2.359375l1.15625 0l0 0.90625l-1.15625 0l0 3.953125q0 0.5 0.046875 0.640625q0.0625 0.140625 0.203125 0.21875q0.140625 0.078125 0.390625 0.078125q0.203125 0 0.515625 -0.046875zm0.6916809 -2.359375q0 -1.875 1.046875 -2.78125q0.875 -0.75 2.125 -0.75q1.390625 0 2.28125 0.921875q0.890625 0.90625 0.890625 2.515625q0 1.3125 -0.390625 2.0625q-0.390625 0.75 -1.140625 1.171875q-0.75 0.40625 -1.640625 0.40625q-1.421875 0 -2.296875 -0.90625q-0.875 -0.921875 -0.875 -2.640625zm1.171875 0q0 1.3125 0.5625 1.953125q0.578125 0.640625 1.4375 0.640625q0.859375 0 1.421875 -0.640625q0.5625 -0.65625 0.5625 -1.984375q0 -1.265625 -0.578125 -1.90625q-0.5625 -0.640625 -1.40625 -0.640625q-0.859375 0 -1.4375 0.640625q-0.5625 0.640625 -0.5625 1.9375z" fill-rule="nonzero"/><path fill="#000000" d="m210.21826 314.98563l1.125 0.15625q-0.1875 1.15625 -0.953125 1.828125q-0.75 0.65625 -1.859375 0.65625q-1.390625 0 -2.234375 -0.90625q-0.84375 -0.921875 -0.84375 -2.609375q0 -1.09375 0.359375 -1.921875q0.359375 -0.828125 1.09375 -1.234375q0.75 -0.40625 1.625 -0.40625q1.109375 0 1.8125 0.5625q0.703125 0.546875 0.890625 1.578125l-1.109375 0.171875q-0.15625 -0.6875 -0.5625 -1.03125q-0.40625 -0.34375 -0.984375 -0.34375q-0.859375 0 -1.40625 0.625q-0.546875 0.625 -0.546875 1.96875q0 1.359375 0.515625 1.984375q0.53125 0.609375 1.375 0.609375q0.671875 0 1.125 -0.40625q0.453125 -0.421875 0.578125 -1.28125zm1.6875 -0.90625q0 -1.875 1.046875 -2.78125q0.875 -0.75 2.125 -0.75q1.390625 0 2.28125 0.921875q0.890625 0.90625 0.890625 2.515625q0 1.3125 -0.390625 2.0625q-0.390625 0.75 -1.140625 1.171875q-0.75 0.40625 -1.640625 0.40625q-1.421875 0 -2.296875 -0.90625q-0.875 -0.921875 -0.875 -2.640625zm1.171875 0q0 1.3125 0.5625 1.953125q0.578125 0.640625 1.4375 0.640625q0.859375 0 1.421875 -0.640625q0.5625 -0.65625 0.5625 -1.984375q0 -1.265625 -0.578125 -1.90625q-0.5625 -0.640625 -1.40625 -0.640625q-0.859375 0 -1.4375 0.640625q-0.5625 0.640625 -0.5625 1.9375zm6.499115 3.390625l0 -6.78125l1.03125 0l0 1.03125q0.40625 -0.71875 0.734375 -0.9375q0.34375 -0.234375 0.734375 -0.234375q0.578125 0 1.1875 0.359375l-0.390625 1.078125q-0.421875 -0.25 -0.84375 -0.25q-0.375 0 -0.6875 0.234375q-0.296875 0.21875 -0.421875 0.609375q-0.1875 0.625 -0.1875 1.34375l0 3.546875l-1.15625 0zm9.006165 -2.1875l1.1875 0.15625q-0.28125 1.03125 -1.046875 1.609375q-0.75 0.578125 -1.9375 0.578125q-1.484375 0 -2.359375 -0.90625q-0.859375 -0.921875 -0.859375 -2.578125q0 -1.703125 0.875 -2.640625q0.875 -0.953125 2.28125 -0.953125q1.359375 0 2.21875 0.921875q0.859375 0.921875 0.859375 2.59375q0 0.109375 0 0.3125l-5.046875 0q0.0625 1.109375 0.625 1.703125q0.5625 0.59375 1.421875 0.59375q0.625 0 1.0625 -0.328125q0.453125 -0.328125 0.71875 -1.0625zm-3.765625 -1.84375l3.78125 0q-0.078125 -0.859375 -0.4375 -1.28125q-0.546875 -0.671875 -1.421875 -0.671875q-0.796875 0 -1.34375 0.53125q-0.53125 0.53125 -0.578125 1.421875zm11.800171 4.03125l-2.484375 -9.34375l1.265625 0l1.421875 6.125q0.234375 0.953125 0.40625 1.90625q0.359375 -1.5 0.421875 -1.71875l1.78125 -6.3125l1.484375 0l1.34375 4.71875q0.5 1.765625 0.71875 3.3125q0.1875 -0.875 0.46875 -2.03125l1.46875 -6.0l1.25 0l-2.5625 9.34375l-1.203125 0l-1.96875 -7.125q-0.25 -0.890625 -0.296875 -1.09375q-0.140625 0.640625 -0.265625 1.09375l-1.984375 7.125l-1.265625 0zm14.952316 -2.1875l1.1875 0.15625q-0.28125 1.03125 -1.046875 1.609375q-0.75 0.578125 -1.9375 0.578125q-1.484375 0 -2.359375 -0.90625q-0.859375 -0.921875 -0.859375 -2.578125q0 -1.703125 0.875 -2.640625q0.875 -0.953125 2.28125 -0.953125q1.359375 0 2.21875 0.921875q0.859375 0.921875 0.859375 2.59375q0 0.109375 0 0.3125l-5.046875 0q0.0625 1.109375 0.625 1.703125q0.5625 0.59375 1.421875 0.59375q0.625 0 1.0625 -0.328125q0.453125 -0.328125 0.71875 -1.0625zm-3.765625 -1.84375l3.78125 0q-0.078125 -0.859375 -0.4375 -1.28125q-0.546875 -0.671875 -1.421875 -0.671875q-0.796875 0 -1.34375 0.53125q-0.53125 0.53125 -0.578125 1.421875zm7.45224 4.03125l-1.0625 0l0 -9.34375l1.140625 0l0 3.328125q0.73435974 -0.90625 1.8593597 -0.90625q0.625 0 1.171875 0.25q0.5625 0.25 0.921875 0.703125q0.375 0.453125 0.578125 1.109375q0.203125 0.640625 0.203125 1.375q0 1.734375 -0.875 2.6875q-0.859375 0.953125 -2.0625 0.953125q-1.1874847 0 -1.8749847 -1.0l0 0.84375zm-0.015625 -3.4375q0 1.21875 0.328125 1.765625q0.54685974 0.875 1.4687347 0.875q0.75 0 1.296875 -0.640625q0.5625 -0.65625 0.5625 -1.953125q0 -1.328125 -0.53125 -1.953125q-0.53125 -0.640625 -1.28125 -0.640625q-0.75 0 -1.2968597 0.65625q-0.546875 0.65625 -0.546875 1.890625zm7.9990997 3.4375l-2.484375 -9.34375l1.265625 0l1.421875 6.125q0.234375 0.953125 0.40625 1.90625q0.359375 -1.5 0.421875 -1.71875l1.78125 -6.3125l1.484375 0l1.34375 4.71875q0.5 1.765625 0.71875 3.3125q0.1875 -0.875 0.46875 -2.03125l1.46875 -6.0l1.25 0l-2.5625 9.34375l-1.203125 0l-1.96875 -7.125q-0.25 -0.890625 -0.296875 -1.09375q-0.140625 0.640625 -0.265625 1.09375l-1.984375 7.125l-1.265625 0zm9.187866 0l3.59375 -9.34375l1.328125 0l3.828125 9.34375l-1.40625 0l-1.09375 -2.828125l-3.90625 0l-1.03125 2.828125l-1.3125 0zm2.6875 -3.84375l3.171875 0l-0.96875 -2.578125q-0.453125 -1.1875 -0.671875 -1.953125q-0.171875 0.90625 -0.5 1.796875l-1.03125 2.734375zm7.0719604 3.84375l0 -9.34375l4.140625 0q1.25 0 1.890625 0.25q0.65625 0.25 1.046875 0.890625q0.390625 0.625 0.390625 1.40625q0 1.0 -0.640625 1.6875q-0.640625 0.671875 -1.984375 0.859375q0.484375 0.234375 0.734375 0.46875q0.546875 0.484375 1.03125 1.234375l1.625 2.546875l-1.546875 0l-1.25 -1.953125q-0.53125 -0.828125 -0.890625 -1.28125q-0.34375 -0.453125 -0.625 -0.625q-0.28125 -0.171875 -0.5625 -0.25q-0.21875 -0.046875 -0.6875 -0.046875l-1.4375 0l0 4.15625l-1.234375 0zm1.234375 -5.21875l2.65625 0q0.84375 0 1.328125 -0.171875q0.484375 -0.1875 0.71875 -0.5625q0.25 -0.390625 0.25 -0.84375q0 -0.671875 -0.484375 -1.09375q-0.46875 -0.421875 -1.515625 -0.421875l-2.953125 0l0 3.09375zm8.167694 5.21875l0 -9.34375l3.53125 0q0.9375 0 1.421875 0.078125q0.6875 0.125 1.15625 0.453125q0.46875 0.3125 0.75 0.890625q0.28125 0.578125 0.28125 1.28125q0 1.1875 -0.765625 2.015625q-0.75 0.828125 -2.734375 0.828125l-2.390625 0l0 3.796875l-1.25 0zm1.25 -4.90625l2.40625 0q1.203125 0 1.703125 -0.4375q0.515625 -0.453125 0.515625 -1.265625q0 -0.578125 -0.296875 -1.0q-0.296875 -0.421875 -0.78125 -0.5625q-0.3125 -0.078125 -1.15625 -0.078125l-2.390625 0l0 3.34375zm10.261963 2.890625l1.125 -0.1875q0.109375 0.6875 0.53125 1.046875q0.4375 0.359375 1.234375 0.359375q0.78125 0 1.15625 -0.3125q0.390625 -0.328125 0.390625 -0.765625q0 -0.390625 -0.328125 -0.609375q-0.25 -0.15625 -1.1875 -0.390625q-1.25 -0.3125 -1.75 -0.546875q-0.484375 -0.234375 -0.734375 -0.640625q-0.25 -0.421875 -0.25 -0.90625q0 -0.453125 0.203125 -0.84375q0.203125 -0.390625 0.5625 -0.640625q0.28125 -0.203125 0.734375 -0.328125q0.46875 -0.140625 1.0 -0.140625q0.796875 0 1.390625 0.234375q0.609375 0.21875 0.890625 0.609375q0.28125 0.390625 0.390625 1.046875l-1.109375 0.15625q-0.078125 -0.515625 -0.453125 -0.8125q-0.359375 -0.296875 -1.03125 -0.296875q-0.796875 0 -1.140625 0.265625q-0.328125 0.265625 -0.328125 0.609375q0 0.21875 0.140625 0.40625q0.140625 0.1875 0.4375 0.296875q0.171875 0.0625 1.015625 0.296875q1.21875 0.328125 1.703125 0.53125q0.484375 0.203125 0.75 0.609375q0.28125 0.390625 0.28125 0.984375q0 0.5625 -0.34375 1.078125q-0.328125 0.5 -0.96875 0.78125q-0.625 0.28125 -1.421875 0.28125q-1.3125 0 -2.015625 -0.546875q-0.6875 -0.546875 -0.875 -1.625zm11.625 -0.171875l1.1875 0.15625q-0.28125 1.03125 -1.046875 1.609375q-0.75 0.578125 -1.9375 0.578125q-1.484375 0 -2.359375 -0.90625q-0.859375 -0.921875 -0.859375 -2.578125q0 -1.703125 0.875 -2.640625q0.875 -0.953125 2.28125 -0.953125q1.359375 0 2.21875 0.921875q0.859375 0.921875 0.859375 2.59375q0 0.109375 0 0.3125l-5.046875 0q0.0625 1.109375 0.625 1.703125q0.5625 0.59375 1.421875 0.59375q0.625 0 1.0625 -0.328125q0.453125 -0.328125 0.71875 -1.0625zm-3.765625 -1.84375l3.78125 0q-0.078125 -0.859375 -0.4375 -1.28125q-0.546875 -0.671875 -1.421875 -0.671875q-0.796875 0 -1.34375 0.53125q-0.53125 0.53125 -0.578125 1.421875zm6.374115 4.03125l0 -6.78125l1.03125 0l0 1.03125q0.40625 -0.71875 0.734375 -0.9375q0.34375 -0.234375 0.734375 -0.234375q0.578125 0 1.1875 0.359375l-0.390625 1.078125q-0.421875 -0.25 -0.84375 -0.25q-0.375 0 -0.6875 0.234375q-0.296875 0.21875 -0.421875 0.609375q-0.1875 0.625 -0.1875 1.34375l0 3.546875l-1.15625 0zm6.2561646 0l-2.578125 -6.78125l1.203125 0l1.453125 4.0625q0.234375 0.65625 0.4375 1.359375q0.15625 -0.53125 0.421875 -1.28125l1.515625 -4.140625l1.171875 0l-2.5625 6.78125l-1.0625 0zm9.28125 -2.1875l1.1875 0.15625q-0.28125 1.03125 -1.046875 1.609375q-0.75 0.578125 -1.9375 0.578125q-1.484375 0 -2.359375 -0.90625q-0.859375 -0.921875 -0.859375 -2.578125q0 -1.703125 0.875 -2.640625q0.875 -0.953125 2.28125 -0.953125q1.359375 0 2.21875 0.921875q0.859375 0.921875 0.859375 2.59375q0 0.109375 0 0.3125l-5.046875 0q0.0625 1.109375 0.625 1.703125q0.5625 0.59375 1.421875 0.59375q0.625 0 1.0625 -0.328125q0.453125 -0.328125 0.71875 -1.0625zm-3.765625 -1.84375l3.78125 0q-0.078125 -0.859375 -0.4375 -1.28125q-0.546875 -0.671875 -1.421875 -0.671875q-0.796875 0 -1.34375 0.53125q-0.53125 0.53125 -0.578125 1.421875zm6.374115 4.03125l0 -6.78125l1.03125 0l0 1.03125q0.40625 -0.71875 0.734375 -0.9375q0.34375 -0.234375 0.734375 -0.234375q0.578125 0 1.1875 0.359375l-0.390625 1.078125q-0.421875 -0.25 -0.84375 -0.25q-0.375 0 -0.6875 0.234375q-0.296875 0.21875 -0.421875 0.609375q-0.1875 0.625 -0.1875 1.34375l0 3.546875l-1.15625 0z" fill-rule="nonzero"/><path fill="#000000" d="m210.32764 327.91013l0 -1.09375l3.953125 0l0 3.46875q-0.90625 0.71875 -1.875 1.09375q-0.96875 0.359375 -2.0 0.359375q-1.375 0 -2.5 -0.578125q-1.125 -0.59375 -1.703125 -1.703125q-0.578125 -1.125 -0.578125 -2.5q0 -1.375 0.578125 -2.546875q0.578125 -1.1875 1.640625 -1.765625q1.078125 -0.578125 2.46875 -0.578125q1.015625 0 1.828125 0.328125q0.828125 0.328125 1.296875 0.921875q0.46875 0.59375 0.703125 1.53125l-1.109375 0.3125q-0.21875 -0.71875 -0.53125 -1.125q-0.3125 -0.40625 -0.890625 -0.65625q-0.578125 -0.25 -1.28125 -0.25q-0.859375 0 -1.484375 0.265625q-0.609375 0.25 -1.0 0.671875q-0.375 0.421875 -0.578125 0.921875q-0.359375 0.875 -0.359375 1.890625q0 1.25 0.421875 2.09375q0.4375 0.84375 1.265625 1.25q0.828125 0.40625 1.75 0.40625q0.796875 0 1.5625 -0.3125q0.765625 -0.3125 1.15625 -0.65625l0 -1.75l-2.734375 0zm10.269806 1.484375l1.1875 0.15625q-0.28125 1.03125 -1.046875 1.609375q-0.75 0.578125 -1.9375 0.578125q-1.484375 0 -2.359375 -0.90625q-0.859375 -0.921875 -0.859375 -2.578125q0 -1.703125 0.875 -2.640625q0.875 -0.953125 2.28125 -0.953125q1.359375 0 2.21875 0.921875q0.859375 0.921875 0.859375 2.59375q0 0.109375 0 0.3125l-5.046875 0q0.0625 1.109375 0.625 1.703125q0.5625 0.59375 1.421875 0.59375q0.625 0 1.0625 -0.328125q0.453125 -0.328125 0.71875 -1.0625zm-3.765625 -1.84375l3.78125 0q-0.078125 -0.859375 -0.4375 -1.28125q-0.546875 -0.671875 -1.421875 -0.671875q-0.796875 0 -1.34375 0.53125q-0.53125 0.53125 -0.578125 1.421875zm8.905365 3.0l0.15625 1.015625q-0.484375 0.109375 -0.859375 0.109375q-0.625 0 -0.96875 -0.203125q-0.34375 -0.203125 -0.484375 -0.515625q-0.140625 -0.328125 -0.140625 -1.359375l0 -3.890625l-0.84375 0l0 -0.90625l0.84375 0l0 -1.671875l1.140625 -0.6875l0 2.359375l1.15625 0l0 0.90625l-1.15625 0l0 3.953125q0 0.5 0.046875 0.640625q0.0625 0.140625 0.203125 0.21875q0.140625 0.078125 0.390625 0.078125q0.203125 0 0.515625 -0.046875zm4.539612 1.59375l1.109375 0.171875q0.078125 0.515625 0.390625 0.75q0.421875 0.3125 1.171875 0.3125q0.796875 0 1.21875 -0.328125q0.4375 -0.3125 0.59375 -0.875q0.09375 -0.359375 0.078125 -1.484375q-0.75 0.890625 -1.875 0.890625q-1.390625 0 -2.15625 -1.0q-0.765625 -1.015625 -0.765625 -2.421875q0 -0.96875 0.34375 -1.78125q0.359375 -0.828125 1.015625 -1.265625q0.671875 -0.453125 1.578125 -0.453125q1.1875 0 1.96875 0.96875l0 -0.828125l1.0625 0l0 5.859375q0 1.578125 -0.328125 2.234375q-0.3125 0.671875 -1.015625 1.046875q-0.703125 0.390625 -1.71875 0.390625q-1.203125 0 -1.953125 -0.546875q-0.75 -0.546875 -0.71875 -1.640625zm0.9375 -4.078125q0 1.34375 0.53125 1.953125q0.53125 0.609375 1.328125 0.609375q0.796875 0 1.328125 -0.609375q0.53125 -0.609375 0.53125 -1.90625q0 -1.25 -0.546875 -1.875q-0.546875 -0.625 -1.328125 -0.625q-0.765625 0 -1.3125 0.625q-0.53125 0.609375 -0.53125 1.828125zm11.17099 1.328125l1.1875 0.15625q-0.28125 1.03125 -1.046875 1.609375q-0.75 0.578125 -1.9375 0.578125q-1.484375 0 -2.359375 -0.90625q-0.859375 -0.921875 -0.859375 -2.578125q0 -1.703125 0.875 -2.640625q0.875 -0.953125 2.28125 -0.953125q1.359375 0 2.21875 0.921875q0.859375 0.921875 0.859375 2.59375q0 0.109375 0 0.3125l-5.046875 0q0.0625 1.109375 0.625 1.703125q0.5625 0.59375 1.421875 0.59375q0.625 0 1.0625 -0.328125q0.453125 -0.328125 0.71875 -1.0625zm-3.765625 -1.84375l3.78125 0q-0.078125 -0.859375 -0.4375 -1.28125q-0.546875 -0.671875 -1.421875 -0.671875q-0.796875 0 -1.34375 0.53125q-0.53125 0.53125 -0.578125 1.421875zm6.38974 4.03125l0 -6.78125l1.03125 0l0 0.96875q0.75 -1.109375 2.15625 -1.109375q0.609375 0 1.125 0.21875q0.515625 0.21875 0.765625 0.578125q0.265625 0.359375 0.359375 0.84375q0.0625 0.3125 0.0625 1.109375l0 4.171875l-1.140625 0l0 -4.125q0 -0.703125 -0.140625 -1.046875q-0.125 -0.34375 -0.46875 -0.546875q-0.34375 -0.21875 -0.796875 -0.21875q-0.734375 0 -1.265625 0.46875q-0.53125 0.46875 -0.53125 1.765625l0 3.703125l-1.15625 0zm11.905365 -2.1875l1.1875 0.15625q-0.28125 1.03125 -1.046875 1.609375q-0.75 0.578125 -1.9375 0.578125q-1.484375 0 -2.359375 -0.90625q-0.859375 -0.921875 -0.859375 -2.578125q0 -1.703125 0.875 -2.640625q0.875 -0.953125 2.28125 -0.953125q1.359375 0 2.21875 0.921875q0.859375 0.921875 0.859375 2.59375q0 0.109375 0 0.3125l-5.046875 0q0.0625 1.109375 0.625 1.703125q0.5625 0.59375 1.421875 0.59375q0.625 0 1.0625 -0.328125q0.453125 -0.328125 0.71875 -1.0625zm-3.765625 -1.84375l3.78125 0q-0.078125 -0.859375 -0.4375 -1.28125q-0.546875 -0.671875 -1.421875 -0.671875q-0.796875 0 -1.34375 0.53125q-0.53125 0.53125 -0.578125 1.421875zm6.374115 4.03125l0 -6.78125l1.03125 0l0 1.03125q0.40625 -0.71875 0.734375 -0.9375q0.34375 -0.234375 0.734375 -0.234375q0.578125 0 1.1875 0.359375l-0.390625 1.078125q-0.421875 -0.25 -0.84375 -0.25q-0.375 0 -0.6875 0.234375q-0.296875 0.21875 -0.421875 0.609375q-0.1875 0.625 -0.1875 1.34375l0 3.546875l-1.15625 0zm8.787415 -0.828125q-0.640625 0.53125 -1.234375 0.765625q-0.578125 0.21875 -1.265625 0.21875q-1.109375 0 -1.71875 -0.546875q-0.59375 -0.546875 -0.59375 -1.390625q0 -0.5 0.21875 -0.90625q0.234375 -0.421875 0.59375 -0.671875q0.375 -0.25 0.84375 -0.375q0.328125 -0.09375 1.015625 -0.171875q1.390625 -0.15625 2.046875 -0.390625q0 -0.234375 0 -0.296875q0 -0.703125 -0.328125 -1.0q-0.4375 -0.375 -1.296875 -0.375q-0.8125 0 -1.203125 0.28125q-0.375 0.28125 -0.5625 1.0l-1.125 -0.15625q0.15625 -0.71875 0.5 -1.15625q0.359375 -0.453125 1.015625 -0.6875q0.65625 -0.234375 1.53125 -0.234375q0.875 0 1.40625 0.203125q0.546875 0.203125 0.796875 0.515625q0.265625 0.296875 0.359375 0.78125q0.0625 0.28125 0.0625 1.046875l0 1.53125q0 1.609375 0.078125 2.03125q0.078125 0.421875 0.28125 0.8125l-1.1875 0q-0.1875 -0.359375 -0.234375 -0.828125zm-0.09375 -2.578125q-0.625 0.265625 -1.875 0.4375q-0.703125 0.109375 -1.0 0.234375q-0.296875 0.125 -0.453125 0.375q-0.15625 0.234375 -0.15625 0.546875q0 0.453125 0.34375 0.765625q0.34375 0.296875 1.015625 0.296875q0.65625 0 1.171875 -0.28125q0.53125 -0.296875 0.765625 -0.796875q0.1875 -0.390625 0.1875 -1.15625l0 -0.421875zm5.45224 2.375l0.15625 1.015625q-0.484375 0.109375 -0.859375 0.109375q-0.625 0 -0.96875 -0.203125q-0.34375 -0.203125 -0.484375 -0.515625q-0.140625 -0.328125 -0.140625 -1.359375l0 -3.890625l-0.84375 0l0 -0.90625l0.84375 0l0 -1.671875l1.140625 -0.6875l0 2.359375l1.15625 0l0 0.90625l-1.15625 0l0 3.953125q0 0.5 0.046875 0.640625q0.0625 0.140625 0.203125 0.21875q0.140625 0.078125 0.390625 0.078125q0.203125 0 0.515625 -0.046875zm5.754181 -1.15625l1.1875 0.15625q-0.28125 1.03125 -1.046875 1.609375q-0.75 0.578125 -1.9375 0.578125q-1.484375 0 -2.359375 -0.90625q-0.859375 -0.921875 -0.859375 -2.578125q0 -1.703125 0.875 -2.640625q0.875 -0.953125 2.28125 -0.953125q1.359375 0 2.21875 0.921875q0.859375 0.921875 0.859375 2.59375q0 0.109375 0 0.3125l-5.046875 0q0.0625 1.109375 0.625 1.703125q0.5625 0.59375 1.421875 0.59375q0.625 0 1.0625 -0.328125q0.453125 -0.328125 0.71875 -1.0625zm-3.765625 -1.84375l3.78125 0q-0.078125 -0.859375 -0.4375 -1.28125q-0.546875 -0.671875 -1.421875 -0.671875q-0.796875 0 -1.34375 0.53125q-0.53125 0.53125 -0.578125 1.421875zm10.780365 4.03125l0 -0.859375q-0.640625 1.015625 -1.890625 1.015625q-0.8125 0 -1.5 -0.4375q-0.671875 -0.453125 -1.046875 -1.25q-0.359375 -0.8125 -0.359375 -1.84375q0 -1.015625 0.328125 -1.84375q0.34375 -0.828125 1.015625 -1.265625q0.671875 -0.4375 1.515625 -0.4375q0.609375 0 1.078125 0.265625q0.484375 0.25 0.78125 0.65625l0 -3.34375l1.15625 0l0 9.34375l-1.078125 0zm-3.625 -3.375q0 1.296875 0.546875 1.9375q0.546875 0.640625 1.296875 0.640625q0.75 0 1.28125 -0.609375q0.53125 -0.609375 0.53125 -1.875q0 -1.390625 -0.546875 -2.03125q-0.53125 -0.65625 -1.3125 -0.65625q-0.765625 0 -1.28125 0.625q-0.515625 0.625 -0.515625 1.96875zm10.143921 -4.65625l0 -1.3125l1.140625 0l0 1.3125l-1.140625 0zm0 8.03125l0 -6.78125l1.140625 0l0 6.78125l-1.140625 0zm2.886444 0l0 -6.78125l1.03125 0l0 0.953125q0.3125 -0.5 0.84375 -0.796875q0.53125 -0.296875 1.203125 -0.296875q0.75 0 1.234375 0.3125q0.484375 0.3125 0.6875 0.875q0.796875 -1.1875 2.09375 -1.1875q1.0 0 1.546875 0.5625q0.546875 0.546875 0.546875 1.703125l0 4.65625l-1.15625 0l0 -4.265625q0 -0.6875 -0.109375 -0.984375q-0.109375 -0.3125 -0.40625 -0.5q-0.28125 -0.1875 -0.6875 -0.1875q-0.703125 0 -1.1875 0.484375q-0.46875 0.46875 -0.46875 1.515625l0 3.9375l-1.140625 0l0 -4.40625q0 -0.765625 -0.28125 -1.140625q-0.28125 -0.390625 -0.921875 -0.390625q-0.484375 0 -0.90625 0.265625q-0.40625 0.25 -0.59375 0.75q-0.171875 0.484375 -0.171875 1.40625l0 3.515625l-1.15625 0zm15.30304 -0.828125q-0.640625 0.53125 -1.234375 0.765625q-0.578125 0.21875 -1.265625 0.21875q-1.109375 0 -1.71875 -0.546875q-0.59375 -0.546875 -0.59375 -1.390625q0 -0.5 0.21875 -0.90625q0.234375 -0.421875 0.59375 -0.671875q0.375 -0.25 0.84375 -0.375q0.328125 -0.09375 1.015625 -0.171875q1.390625 -0.15625 2.046875 -0.390625q0 -0.234375 0 -0.296875q0 -0.703125 -0.328125 -1.0q-0.4375 -0.375 -1.296875 -0.375q-0.8125 0 -1.203125 0.28125q-0.375 0.28125 -0.5625 1.0l-1.125 -0.15625q0.15625 -0.71875 0.5 -1.15625q0.359375 -0.453125 1.015625 -0.6875q0.65625 -0.234375 1.53125 -0.234375q0.875 0 1.40625 0.203125q0.546875 0.203125 0.796875 0.515625q0.265625 0.296875 0.359375 0.78125q0.0625 0.28125 0.0625 1.046875l0 1.53125q0 1.609375 0.078125 2.03125q0.078125 0.421875 0.28125 0.8125l-1.1875 0q-0.1875 -0.359375 -0.234375 -0.828125zm-0.09375 -2.578125q-0.625 0.265625 -1.875 0.4375q-0.703125 0.109375 -1.0 0.234375q-0.296875 0.125 -0.453125 0.375q-0.15625 0.234375 -0.15625 0.546875q0 0.453125 0.34375 0.765625q0.34375 0.296875 1.015625 0.296875q0.65625 0 1.171875 -0.28125q0.53125 -0.296875 0.765625 -0.796875q0.1875 -0.390625 0.1875 -1.15625l0 -0.421875zm2.73349 3.96875l1.109375 0.171875q0.078125 0.515625 0.390625 0.75q0.421875 0.3125 1.171875 0.3125q0.796875 0 1.21875 -0.328125q0.4375 -0.3125 0.59375 -0.875q0.09375 -0.359375 0.078125 -1.484375q-0.75 0.890625 -1.875 0.890625q-1.390625 0 -2.15625 -1.0q-0.765625 -1.015625 -0.765625 -2.421875q0 -0.96875 0.34375 -1.78125q0.359375 -0.828125 1.015625 -1.265625q0.671875 -0.453125 1.578125 -0.453125q1.1875 0 1.96875 0.96875l0 -0.828125l1.0625 0l0 5.859375q0 1.578125 -0.328125 2.234375q-0.3125 0.671875 -1.015625 1.046875q-0.703125 0.390625 -1.71875 0.390625q-1.203125 0 -1.953125 -0.546875q-0.75 -0.546875 -0.71875 -1.640625zm0.9375 -4.078125q0 1.34375 0.53125 1.953125q0.53125 0.609375 1.328125 0.609375q0.796875 0 1.328125 -0.609375q0.53125 -0.609375 0.53125 -1.90625q0 -1.25 -0.546875 -1.875q-0.546875 -0.625 -1.328125 -0.625q-0.765625 0 -1.3125 0.625q-0.53125 0.609375 -0.53125 1.828125zm11.17099 1.328125l1.1875 0.15625q-0.28125 1.03125 -1.046875 1.609375q-0.75 0.578125 -1.9375 0.578125q-1.484375 0 -2.359375 -0.90625q-0.859375 -0.921875 -0.859375 -2.578125q0 -1.703125 0.875 -2.640625q0.875 -0.953125 2.28125 -0.953125q1.359375 0 2.21875 0.921875q0.859375 0.921875 0.859375 2.59375q0 0.109375 0 0.3125l-5.046875 0q0.0625 1.109375 0.625 1.703125q0.5625 0.59375 1.421875 0.59375q0.625 0 1.0625 -0.328125q0.453125 -0.328125 0.71875 -1.0625zm-3.765625 -1.84375l3.78125 0q-0.078125 -0.859375 -0.4375 -1.28125q-0.546875 -0.671875 -1.421875 -0.671875q-0.796875 0 -1.34375 0.53125q-0.53125 0.53125 -0.578125 1.421875zm5.936615 2.015625l1.125 -0.1875q0.109375 0.6875 0.53125 1.046875q0.4375 0.359375 1.234375 0.359375q0.78125 0 1.15625 -0.3125q0.390625 -0.328125 0.390625 -0.765625q0 -0.390625 -0.328125 -0.609375q-0.25 -0.15625 -1.1875 -0.390625q-1.25 -0.3125 -1.75 -0.546875q-0.484375 -0.234375 -0.734375 -0.640625q-0.25 -0.421875 -0.25 -0.90625q0 -0.453125 0.203125 -0.84375q0.203125 -0.390625 0.5625 -0.640625q0.28125 -0.203125 0.734375 -0.328125q0.46875 -0.140625 1.0 -0.140625q0.796875 0 1.390625 0.234375q0.609375 0.21875 0.890625 0.609375q0.28125 0.390625 0.390625 1.046875l-1.109375 0.15625q-0.078125 -0.515625 -0.453125 -0.8125q-0.359375 -0.296875 -1.03125 -0.296875q-0.796875 0 -1.140625 0.265625q-0.328125 0.265625 -0.328125 0.609375q0 0.21875 0.140625 0.40625q0.140625 0.1875 0.4375 0.296875q0.171875 0.0625 1.015625 0.296875q1.21875 0.328125 1.703125 0.53125q0.484375 0.203125 0.75 0.609375q0.28125 0.390625 0.28125 0.984375q0 0.5625 -0.34375 1.078125q-0.328125 0.5 -0.96875 0.78125q-0.625 0.28125 -1.421875 0.28125q-1.3125 0 -2.015625 -0.546875q-0.6875 -0.546875 -0.875 -1.625z" fill-rule="nonzero"/><path fill="#000000" fill-opacity="0.0" d="m747.0893 139.91339l8.125977 161.51181" fill-rule="evenodd"/><path stroke="#000000" stroke-width="1.0" stroke-linejoin="round" stroke-linecap="butt" d="m747.0893 139.91339l8.125977 161.51181" fill-rule="evenodd"/><path fill="#000000" fill-opacity="0.0" d="m1059.6509 177.5958l426.2362 0l0 49.732285l-426.2362 0z" fill-rule="evenodd"/><path fill="#ffffff" d="m31.871391 343.47244l194.61417 0l0 113.98425l-194.61417 0z" fill-rule="evenodd"/><path stroke="#000000" stroke-width="1.0" stroke-linejoin="round" stroke-linecap="butt" d="m31.871391 343.47244l194.61417 0l0 113.98425l-194.61417 0z" fill-rule="evenodd"/><path fill="#000000" d="m119.68687 394.02518l1.765625 0l0 7.71875q0 2.015625 -0.453125 3.203125q-0.453125 1.1875 -1.640625 1.9375q-1.1875 0.734375 -3.125 0.734375q-1.875 0 -3.078125 -0.640625q-1.1875 -0.65625 -1.703125 -1.875q-0.5 -1.234375 -0.5 -3.359375l0 -7.71875l1.765625 0l0 7.71875q0 1.734375 0.3125 2.5625q0.328125 0.8125 1.109375 1.265625q0.796875 0.453125 1.9375 0.453125q1.953125 0 2.78125 -0.890625q0.828125 -0.890625 0.828125 -3.390625l0 -7.71875zm3.8479462 10.46875l1.625 -0.25q0.125 0.96875 0.75 1.5q0.625 0.515625 1.75 0.515625q1.1249924 0 1.6718674 -0.453125q0.546875 -0.46875 0.546875 -1.09375q0 -0.546875 -0.484375 -0.875q-0.328125 -0.21875 -1.6718674 -0.546875q-1.8125 -0.46875 -2.515625 -0.796875q-0.6875 -0.328125 -1.046875 -0.90625q-0.359375 -0.59375 -0.359375 -1.3125q0 -0.640625 0.296875 -1.1875q0.296875 -0.5625 0.8125 -0.921875q0.375 -0.28125 1.03125 -0.46875q0.671875 -0.203125 1.421875 -0.203125q1.1406174 0 1.9999924 0.328125q0.859375 0.328125 1.265625 0.890625q0.421875 0.5625 0.578125 1.5l-1.609375 0.21875q-0.109375 -0.75 -0.640625 -1.171875q-0.515625 -0.421875 -1.4687424 -0.421875q-1.140625 0 -1.625 0.375q-0.46875 0.375 -0.46875 0.875q0 0.3125 0.1875 0.578125q0.203125 0.265625 0.640625 0.4375q0.234375 0.09375 1.4375 0.421875q1.7499924 0.453125 2.4374924 0.75q0.6875 0.296875 1.078125 0.859375q0.390625 0.5625 0.390625 1.40625q0 0.828125 -0.484375 1.546875q-0.46875 0.71875 -1.375 1.125q-0.90625 0.390625 -2.0468674 0.390625q-1.875 0 -2.875 -0.78125q-0.984375 -0.78125 -1.25 -2.328125zm16.609367 -0.21875l1.6875 0.203125q-0.40625 1.484375 -1.484375 2.3125q-1.078125 0.8125 -2.765625 0.8125q-2.125 0 -3.375 -1.296875q-1.234375 -1.3125 -1.234375 -3.671875q0 -2.453125 1.25 -3.796875q1.265625 -1.34375 3.265625 -1.34375q1.9375 0 3.15625 1.328125q1.234375 1.3125 1.234375 3.703125q0 0.15625 0 0.4375l-7.21875 0q0.09375 1.59375 0.90625 2.453125q0.8125 0.84375 2.015625 0.84375q0.90625 0 1.546875 -0.46875q0.640625 -0.484375 1.015625 -1.515625zm-5.390625 -2.65625l5.40625 0q-0.109375 -1.21875 -0.625 -1.828125q-0.78125 -0.953125 -2.03125 -0.953125q-1.125 0 -1.90625 0.765625q-0.765625 0.75 -0.84375 2.015625zm9.125717 5.765625l0 -9.671875l1.46875 0l0 1.46875q0.5625 -1.03125 1.03125 -1.359375q0.484375 -0.328125 1.0625 -0.328125q0.828125 0 1.6875 0.53125l-0.5625 1.515625q-0.609375 -0.359375 -1.203125 -0.359375q-0.546875 0 -0.96875 0.328125q-0.421875 0.328125 -0.609375 0.890625q-0.28125 0.875 -0.28125 1.921875l0 5.0625l-1.625 0z" fill-rule="nonzero"/><path fill="#000000" fill-opacity="0.0" d="m698.1234 354.3832l-90.834656 -101.574814" fill-rule="evenodd"/><path stroke="#000000" stroke-width="1.0" stroke-linejoin="round" stroke-linecap="butt" d="m694.12384 349.9107l-82.83551 -92.62979" fill-rule="evenodd"/><path fill="#000000" stroke="#000000" stroke-width="1.0" stroke-linecap="butt" d="m692.89264 351.01175l4.2562866 2.2817383l-1.7938232 -4.4838257z" fill-rule="evenodd"/><path fill="#000000" stroke="#000000" stroke-width="1.0" stroke-linecap="butt" d="m612.5196 256.17984l-4.2563477 -2.2817078l1.7938843 4.483795z" fill-rule="evenodd"/></g></svg>